<?xml version="1.0" standalone="no"?>
<!DOCTYPE svg PUBLIC "-//W3C//DTD SVG 1.1//EN" "http://www.w3.org/Graphics/SVG/1.1/DTD/svg11.dtd" >
<svg>
<metadata>
Created by FontForge 20090622 at Fri Jun 24 03:19:31 2016
 By deploy user
Copyright (c) 2000 The Hoefler Type Foundry, Inc., dba Hoefler &#38; Frere-Jones. All Rights Reserved.
</metadata>
<defs>
<font id="GothamPro-Bold" horiz-adv-x="500" >
  <font-face 
    font-family="Gotham Pro"
    font-weight="700"
    font-stretch="normal"
    units-per-em="1000"
    panose-1="2 0 8 3 3 0 0 2 0 4"
    ascent="800"
    descent="-200"
    x-height="536"
    cap-height="700"
    bbox="-71 -173 1195 932"
    underline-thickness="20"
    underline-position="-113"
    unicode-range="U+0020-U+FB04"
  />
<missing-glyph 
d="M0 0v700h500v-700h-500zM81 49h339l-170 255zM49 96l171 254l-171 254v-508zM450 96v508l-171 -254zM250 395l170 255h-339z" />
    <glyph glyph-name="fi" unicode="fi" horiz-adv-x="684" 
d="M453 595v135h160v-135h-160zM94 0v406h-63v125h63v34q0 87 43 130q42 42 123 42q61 0 108 -15v-126q-36 13 -69 13q-55 0 -55 -58v-21h123v-124h-121v-406h-152zM457 0v536h152v-536h-152z" />
    <glyph glyph-name="fl" unicode="fl" horiz-adv-x="684" 
d="M94 0v406h-63v125h63v34q0 87 43 130q42 42 123 42q61 0 108 -15v-126q-36 13 -69 13q-55 0 -55 -58v-21h123v-124h-121v-406h-152zM457 0v730h152v-730h-152z" />
    <glyph glyph-name="ffi" unicode="ffi" horiz-adv-x="1066" 
d="M835 595v135h160v-135h-160zM476 0v406h-63v125h63v34q0 87 43 130q42 42 123 42q61 0 108 -15v-126q-36 13 -69 13q-55 0 -55 -58v-21h123v-124h-121v-406h-152zM94 0v406h-63v125h63v34q0 87 43 130q42 42 123 42q61 0 108 -15v-126q-36 13 -69 13q-55 0 -55 -58v-21
h123v-124h-121v-406h-152zM839 0v536h152v-536h-152z" />
    <glyph glyph-name="ffl" unicode="ffl" horiz-adv-x="1066" 
d="M476 0v406h-63v125h63v34q0 87 43 130q42 42 123 42q61 0 108 -15v-126q-36 13 -69 13q-55 0 -55 -58v-21h123v-124h-121v-406h-152zM94 0v406h-63v125h63v34q0 87 43 130q42 42 123 42q61 0 108 -15v-126q-36 13 -69 13q-55 0 -55 -58v-21h123v-124h-121v-406h-152z
M839 0v730h152v-730h-152z" />
    <glyph glyph-name=".notdef" 
d="M0 0v700h500v-700h-500zM81 49h339l-170 255zM49 96l171 254l-171 254v-508zM450 96v508l-171 -254zM250 395l170 255h-339z" />
    <glyph glyph-name=".null" horiz-adv-x="0" 
 />
    <glyph glyph-name="nonmarkingreturn" horiz-adv-x="333" 
 />
    <glyph glyph-name="space" unicode=" " horiz-adv-x="300" 
 />
    <glyph glyph-name="exclam" unicode="!" horiz-adv-x="324" 
d="M120 238l-47 442v20h178v-20l-47 -442h-84zM81 0v160h162v-160h-162z" />
    <glyph glyph-name="quotedbl" unicode="&#x22;" horiz-adv-x="520" 
d="M293 381l18 319h168v-5l-109 -314h-77zM57 381l18 319h168v-5l-109 -314h-77z" />
    <glyph glyph-name="numbersign" unicode="#" horiz-adv-x="700" 
d="M85 0l26 150h-76v128h98l25 148h-88v128h110l25 146h132l-25 -146h145l25 146h132l-25 -146h76v-128h-98l-25 -148h88v-128h-110l-26 -150h-132l26 150h-145l-26 -150h-132zM265 278h145l25 148h-145z" />
    <glyph glyph-name="dollar" unicode="$" horiz-adv-x="646" 
d="M280 -98v101q-133 17 -236 95l78 114q86 -65 163 -81v159q-112 30 -163.5 78.5t-51.5 135.5q0 82 57 134t153 62v58h104v-60q101 -14 186 -74l-67 -117q-64 43 -124 59v-151q115 -31 166 -81.5t51 -135.5q0 -82 -57.5 -134t-154.5 -63v-99h-104zM285 440v135
q-69 -9 -69 -64q0 -24 14.5 -40.5t54.5 -30.5zM379 126q71 11 71 66q0 26 -15.5 42.5t-55.5 31.5v-140z" />
    <glyph glyph-name="percent" unicode="%" horiz-adv-x="860" 
d="M214 350q-75 0 -122 51.5t-47 127.5t48 127.5t123 51.5t122 -51.5t47 -127.5q0 -75 -48 -127t-123 -52zM115 0l511 700h119l-511 -700h-119zM644 -8q-75 0 -122 51.5t-47 127.5t48 127.5t123 51.5t122 -51.5t47 -127.5q0 -75 -48 -127t-123 -52zM216 441q30 0 47 25.5
t17 62.5q0 36 -18.5 62t-47.5 26q-30 0 -47 -25t-17 -63q0 -36 18.5 -62t47.5 -26zM646 83q30 0 47 25.5t17 62.5q0 36 -18.5 62t-47.5 26q-30 0 -47 -25t-17 -63q0 -36 18.5 -62t47.5 -26z" />
    <glyph glyph-name="ampersand" unicode="&#x26;" horiz-adv-x="696" 
d="M555 -14l-81 82q-95 -78 -205 -78q-103 0 -169 55.5t-66 148.5q0 130 136 192q-49 69 -49 142q0 76 57.5 130t154.5 54q88 0 142.5 -51t54.5 -127q0 -126 -147 -183l93 -93q33 52 68 120l113 -62q-52 -94 -92 -148l103 -103zM303 432q48 18 70.5 40t22.5 55
q0 30 -18 47.5t-48 17.5q-31 0 -49.5 -20t-18.5 -53q0 -40 41 -87zM287 116q50 0 101 40l-134 136q-65 -34 -65 -94q0 -37 27.5 -59.5t70.5 -22.5z" />
    <glyph glyph-name="quotesingle" unicode="'" horiz-adv-x="286" 
d="M57 381l18 319h170v-5l-109 -314h-79z" />
    <glyph glyph-name="parenleft" unicode="(" horiz-adv-x="445" 
d="M336 -141q-139 76 -208 180.5t-69 247.5t69 247.5t208 180.5l67 -101q-102 -71 -147.5 -146.5t-45.5 -180.5t45.5 -180.5t147.5 -146.5z" />
    <glyph glyph-name="parenright" unicode=")" horiz-adv-x="445" 
d="M109 -141l-67 101q102 71 147.5 146.5t45.5 180.5t-45.5 180.5t-147.5 146.5l67 101q139 -76 208 -180.5t69 -247.5t-69 -247.5t-208 -180.5z" />
    <glyph glyph-name="asterisk" unicode="*" horiz-adv-x="430" 
d="M174 372l16 120l-97 -74l-42 72l112 47l-112 47l42 72l97 -74l-16 120h82l-16 -120l97 74l42 -72l-112 -47l112 -47l-42 -72l-97 74l16 -120h-82z" />
    <glyph glyph-name="plus" unicode="+" horiz-adv-x="640" 
d="M249 103v180h-181v138h181v180h142v-180h181v-138h-181v-180h-142z" />
    <glyph glyph-name="comma" unicode="," horiz-adv-x="286" 
d="M39 -162l-13 63q98 11 98 88v11h-62v160h162v-135q0 -96 -46.5 -140.5t-138.5 -46.5z" />
    <glyph glyph-name="hyphen" unicode="-" horiz-adv-x="408" 
d="M50 237v146h308v-146h-308z" />
    <glyph glyph-name="period" unicode="." horiz-adv-x="286" 
d="M62 0v160h162v-160h-162z" />
    <glyph glyph-name="slash" unicode="/" horiz-adv-x="530" 
d="M-28 -128l443 926h129l-443 -926h-129z" />
    <glyph glyph-name="zero" unicode="0" horiz-adv-x="730" 
d="M364 -12q-138 0 -224 103t-86 259q0 155 87 258.5t225 103.5q137 0 223.5 -103t86.5 -259q0 -155 -87 -258.5t-225 -103.5zM366 127q69 0 110.5 62.5t41.5 160.5q0 96 -43 159.5t-111 63.5t-110 -62.5t-42 -160.5q0 -97 42.5 -160t111.5 -63z" />
    <glyph glyph-name="one" unicode="1" horiz-adv-x="422" 
d="M178 0v549l-122 -30l-32 126l201 60h105v-705h-152z" />
    <glyph glyph-name="two" unicode="2" horiz-adv-x="623" 
d="M49 0v122l233 191q69 57 95 91.5t26 76.5q0 43 -26 67t-68 24q-39 0 -70.5 -21.5t-72.5 -72.5l-108 87q55 75 113.5 110t147.5 35q109 0 175 -59.5t66 -158.5q0 -57 -22 -102.5t-57 -80t-105 -88.5l-114 -88h305v-133h-518z" />
    <glyph glyph-name="three" unicode="3" horiz-adv-x="621" 
d="M311 -12q-171 0 -273 121l106 101q75 -84 169 -84q44 0 71.5 23.5t27.5 63.5q0 43 -36 66t-101 23h-64l-24 98l167 168h-275v132h473v-116l-177 -169q188 -32 188 -198q0 -101 -68.5 -165t-183.5 -64z" />
    <glyph glyph-name="four" unicode="4" horiz-adv-x="689" 
d="M398 0v151h-342l-25 109l384 445h130v-429h94v-125h-94v-151h-147zM212 276h186v218z" />
    <glyph glyph-name="five" unicode="5" horiz-adv-x="630" 
d="M305 -12q-152 0 -262 105l93 111q84 -76 167 -76q55 0 86 26t31 73q0 44 -34 69.5t-90 25.5t-117 -26l-89 59l20 345h430v-135h-298l-8 -121q48 12 92 12q109 0 177 -56t68 -170q0 -111 -72.5 -176.5t-193.5 -65.5z" />
    <glyph glyph-name="six" unicode="6" horiz-adv-x="662" 
d="M339 -12q-127 0 -202 75q-83 83 -83 267q0 170 78 276t229 106q122 0 219 -77l-81 -119q-38 29 -69.5 42.5t-73.5 13.5q-62 0 -97.5 -44.5t-43.5 -117.5q68 45 145 45q108 0 177 -59t69 -166q0 -106 -76 -174t-191 -68zM333 120q56 0 88 29t32 76q0 45 -33 73.5t-89 28.5
t-88 -28t-32 -75q0 -45 33 -74.5t89 -29.5z" />
    <glyph glyph-name="seven" unicode="7" horiz-adv-x="619" 
d="M84 0l313 567h-329v133h504v-116l-314 -584h-174z" />
    <glyph glyph-name="eight" unicode="8" horiz-adv-x="630" 
d="M315 -10q-118 0 -194 56t-76 148q0 117 113 169q-89 54 -89 155q0 82 68.5 137t177.5 55q110 0 178 -55t68 -139q0 -99 -89 -153q57 -30 85 -68t28 -99q0 -95 -75.5 -150.5t-194.5 -55.5zM315 414q45 0 72.5 24t27.5 63q0 34 -27.5 58t-72.5 24q-46 0 -73 -24t-27 -59
q0 -37 27.5 -61.5t72.5 -24.5zM315 117q56 0 88.5 25t32.5 64q0 40 -33.5 63t-87.5 23t-87.5 -23.5t-33.5 -64.5q0 -37 33 -62t88 -25z" />
    <glyph glyph-name="nine" unicode="9" horiz-adv-x="662" 
d="M302 -12q-130 0 -230 83l81 117q75 -60 153 -60q62 0 98 43t44 116q-56 -48 -142 -48q-115 0 -182.5 60.5t-67.5 167.5q0 106 74.5 175.5t192.5 69.5q69 0 115.5 -18t86.5 -58q83 -83 83 -266q0 -174 -80 -278t-226 -104zM331 367q56 0 88 29.5t32 76.5t-33 77t-90 30
q-56 0 -87.5 -29.5t-31.5 -78.5q0 -47 33 -76t89 -29z" />
    <glyph glyph-name="colon" unicode=":" horiz-adv-x="296" 
d="M67 376v160h162v-160h-162zM67 0v160h162v-160h-162z" />
    <glyph glyph-name="semicolon" unicode=";" horiz-adv-x="296" 
d="M67 376v160h162v-160h-162zM44 -162l-13 63q98 11 98 88v11h-62v160h162v-135q0 -96 -46.5 -140.5t-138.5 -46.5z" />
    <glyph glyph-name="less" unicode="&#x3c;" horiz-adv-x="640" 
d="M552 71l-484 212v138l484 212v-141l-338 -139l338 -139v-143z" />
    <glyph glyph-name="equal" unicode="=" horiz-adv-x="640" 
d="M83 413v138h474v-138h-474zM83 153v138h474v-138h-474z" />
    <glyph glyph-name="greater" unicode="&#x3e;" horiz-adv-x="640" 
d="M88 71v141l338 139l-338 139v143l484 -212v-138z" />
    <glyph glyph-name="question" unicode="?" horiz-adv-x="544" 
d="M197 238l-23 162l5 5q175 7 175 93q0 34 -24 52.5t-68 18.5q-81 0 -150 -69l-92 101q98 108 245 108q110 0 176 -55t66 -154q0 -161 -197 -201l-11 -61h-102zM164 0v160h162v-160h-162z" />
    <glyph glyph-name="at" unicode="@" horiz-adv-x="980" 
d="M499 -162q-190 0 -318 127.5t-128 308.5q0 180 127.5 309t310.5 129q180 0 308 -119.5t128 -276.5q0 -120 -56 -185.5t-143 -65.5q-101 0 -153 60q-66 -60 -148 -60q-78 0 -130.5 53t-52.5 140q0 104 67.5 177.5t156.5 73.5q88 0 138 -68l11 53l118 -19l-47 -269
q-3 -15 -3 -31q0 -28 19.5 -45.5t53.5 -17.5q55 0 91 54t36 150q0 142 -114.5 249t-279.5 107q-168 0 -282 -116t-114 -282q0 -167 114.5 -281.5t289.5 -114.5q131 0 245 67l20 -32q-123 -75 -265 -75zM462 168q48 0 83.5 41.5t35.5 102.5q0 42 -26 68t-67 26
q-49 0 -84.5 -41t-35.5 -100q0 -46 26 -71.5t68 -25.5z" />
    <glyph glyph-name="A" unicode="A" horiz-adv-x="790" 
d="M24 0l300 705h142l300 -705h-161l-64 157h-296l-64 -157h-157zM300 293h186l-93 227z" />
    <glyph glyph-name="B" unicode="B" horiz-adv-x="722" 
d="M84 0v700h325q121 0 183 -62q48 -48 48 -121q0 -99 -92 -151q65 -25 98 -65.5t33 -108.5q0 -94 -70 -143t-192 -49h-333zM234 417h142q111 0 111 76q0 35 -26 53.5t-75 18.5h-152v-148zM234 135h183q109 0 109 78q0 76 -114 76h-178v-154z" />
    <glyph glyph-name="C" unicode="C" horiz-adv-x="738" 
d="M412 -12q-154 0 -256.5 104.5t-102.5 257.5q0 152 103 257t262 105q91 0 153 -29.5t118 -84.5l-92 -106q-45 41 -84.5 59.5t-95.5 18.5q-88 0 -145.5 -63.5t-57.5 -156.5q0 -92 57.5 -156t145.5 -64q56 0 97 20t87 62l98 -105q-57 -61 -123.5 -90t-163.5 -29z" />
    <glyph glyph-name="D" unicode="D" horiz-adv-x="782" 
d="M84 0v700h273q164 0 268 -99.5t104 -250.5q0 -150 -104.5 -250t-267.5 -100h-273zM238 139h119q95 0 153 58.5t58 152.5q0 93 -58.5 152t-152.5 59h-119v-422z" />
    <glyph glyph-name="E" unicode="E" horiz-adv-x="670" 
d="M84 0v700h528v-137h-375v-142h330v-137h-330v-147h380v-137h-533z" />
    <glyph glyph-name="F" unicode="F" horiz-adv-x="656" 
d="M84 0v700h533v-140h-379v-149h334v-140h-334v-271h-154z" />
    <glyph glyph-name="G" unicode="G" horiz-adv-x="784" 
d="M421 -12q-163 0 -265.5 102t-102.5 260q0 151 105 256.5t262 105.5q91 0 154 -23.5t121 -72.5l-97 -117q-44 37 -85 54t-98 17q-84 0 -142.5 -64.5t-58.5 -155.5q0 -96 59.5 -159t152.5 -63q86 0 145 42v100h-155v133h304v-304q-131 -111 -299 -111z" />
    <glyph glyph-name="H" unicode="H" horiz-adv-x="760" 
d="M84 0v700h154v-277h284v277h154v-700h-154v281h-284v-281h-154z" />
    <glyph glyph-name="I" unicode="I" horiz-adv-x="336" 
d="M91 0v700h154v-700h-154z" />
    <glyph glyph-name="J" unicode="J" horiz-adv-x="564" 
d="M243 -10q-141 0 -229 105l97 108q64 -70 128 -70q94 0 94 116v451h158v-458q0 -121 -66 -187q-65 -65 -182 -65z" />
    <glyph glyph-name="K" unicode="K" horiz-adv-x="730" 
d="M84 0v700h154v-306l284 306h186l-285 -297l298 -403h-185l-217 298l-81 -84v-214h-154z" />
    <glyph glyph-name="L" unicode="L" horiz-adv-x="619" 
d="M84 0v700h154v-560h349v-140h-503z" />
    <glyph glyph-name="M" unicode="M" horiz-adv-x="868" 
d="M84 0v700h166l184 -296l184 296h166v-700h-153v457l-197 -299h-4l-195 296v-454h-151z" />
    <glyph glyph-name="N" unicode="N" horiz-adv-x="790" 
d="M84 0v700h142l328 -431v431h152v-700h-131l-339 445v-445h-152z" />
    <glyph glyph-name="O" unicode="O" horiz-adv-x="850" 
d="M424 -12q-160 0 -265.5 105t-105.5 257q0 151 106.5 256.5t266.5 105.5t265.5 -105t105.5 -257q0 -151 -106.5 -256.5t-266.5 -105.5zM426 130q92 0 151 63.5t59 156.5q0 92 -60 156t-152 64t-151 -63.5t-59 -156.5q0 -92 60 -156t152 -64z" />
    <glyph glyph-name="P" unicode="P" horiz-adv-x="668" 
d="M84 0v700h286q124 0 196 -67t72 -177q0 -117 -80 -181.5t-203 -64.5h-117v-210h-154zM238 347h122q57 0 89.5 30t32.5 78q0 51 -33 78.5t-92 27.5h-119v-214z" />
    <glyph glyph-name="Q" unicode="Q" horiz-adv-x="850" 
d="M709 -21l-77 69q-93 -60 -208 -60q-160 0 -265.5 105t-105.5 257q0 151 106.5 256.5t266.5 105.5t265.5 -105t105.5 -257q0 -111 -62 -201l72 -61zM426 130q49 0 92 19l-114 97l98 110l115 -104q19 42 19 98q0 92 -60 156t-152 64t-151 -63.5t-59 -156.5q0 -92 60 -156
t152 -64z" />
    <glyph glyph-name="R" unicode="R" horiz-adv-x="723" 
d="M84 0v700h320q133 0 204 -71q60 -60 60 -162q0 -161 -150 -217l171 -250h-180l-152 224h-119v-224h-154zM238 360h156q56 0 87 27.5t31 73.5q0 49 -32 74.5t-89 25.5h-153v-201z" />
    <glyph glyph-name="S" unicode="S" horiz-adv-x="640" 
d="M333 -10q-172 0 -297 112l91 109q103 -85 209 -85q47 0 74 18t27 50q0 30 -28 48.5t-113 40.5q-60 15 -97 29.5t-70.5 38.5t-49 60.5t-15.5 87.5q0 95 68.5 153t176.5 58q149 0 260 -89l-80 -116q-99 69 -182 69q-43 0 -66.5 -17.5t-23.5 -45.5q0 -34 29 -51t122 -41
q114 -30 168 -77t54 -135q0 -102 -70.5 -159.5t-186.5 -57.5z" />
    <glyph glyph-name="T" unicode="T" horiz-adv-x="648" 
d="M247 0v558h-213v142h580v-142h-213v-558h-154z" />
    <glyph glyph-name="U" unicode="U" horiz-adv-x="756" 
d="M376 -11q-143 0 -223 79.5t-80 231.5v400h154v-396q0 -84 39.5 -128.5t111.5 -44.5t111.5 43t39.5 125v401h154v-395q0 -156 -81.5 -236t-225.5 -80z" />
    <glyph glyph-name="V" unicode="V" horiz-adv-x="750" 
d="M307 -5l-283 705h170l183 -493l183 493h166l-283 -705h-136z" />
    <glyph glyph-name="W" unicode="W" horiz-adv-x="1122" 
d="M269 -5l-239 705h165l145 -474l157 476h132l157 -476l145 474h161l-239 -705h-134l-158 458l-158 -458h-134z" />
    <glyph glyph-name="X" unicode="X" horiz-adv-x="732" 
d="M31 0l244 356l-234 344h180l147 -227l148 227h175l-234 -342l244 -358h-180l-157 240l-158 -240h-175z" />
    <glyph glyph-name="Y" unicode="Y" horiz-adv-x="716" 
d="M281 0v276l-269 424h180l167 -281l170 281h175l-269 -421v-279h-154z" />
    <glyph glyph-name="Z" unicode="Z" horiz-adv-x="708" 
d="M63 0v117l385 448h-373v135h571v-117l-385 -448h385v-135h-583z" />
    <glyph glyph-name="bracketleft" unicode="[" horiz-adv-x="465" 
d="M83 -130v830h323v-119h-177v-592h177v-119h-323z" />
    <glyph glyph-name="backslash" unicode="\" horiz-adv-x="530" 
d="M429 -128l-443 926h129l443 -926h-129z" />
    <glyph glyph-name="bracketright" unicode="]" horiz-adv-x="465" 
d="M59 -130v119h177v592h-177v119h323v-830h-323z" />
    <glyph glyph-name="asciicircum" unicode="^" 
d="M50 493l148 207h104l148 -207h-110l-91 117l-91 -117h-108z" />
    <glyph glyph-name="underscore" unicode="_" horiz-adv-x="600" 
d="M-2 -160v116h604v-116h-604z" />
    <glyph glyph-name="grave" unicode="`" 
d="M238 595l-128 120l131 57l113 -177h-116z" />
    <glyph glyph-name="a" unicode="a" horiz-adv-x="592" 
d="M220 -10q-79 0 -131.5 44t-52.5 122q0 85 58.5 128t157.5 43q67 0 131 -22v9q0 98 -115 98q-69 0 -148 -29l-38 116q98 43 208 43q121 0 181 -60q58 -58 58 -171v-311h-147v58q-61 -68 -162 -68zM266 95q53 0 86 26.5t33 67.5v27q-43 20 -97 20q-50 0 -77.5 -19.5
t-27.5 -56.5q0 -30 23 -47.5t60 -17.5z" />
    <glyph glyph-name="b" unicode="b" horiz-adv-x="675" 
d="M387 -10q-100 0 -167 80v-70h-152v730h152v-271q64 87 167 87q100 0 172 -75t72 -204q0 -128 -71.5 -202.5t-172.5 -74.5zM348 119q55 0 93 41.5t38 108.5q0 65 -38 106.5t-93 41.5t-92.5 -41.5t-37.5 -108.5q0 -65 37.5 -106.5t92.5 -41.5z" />
    <glyph glyph-name="c" unicode="c" horiz-adv-x="571" 
d="M321 -12q-120 0 -199.5 81t-79.5 198q0 116 80 197.5t201 81.5q129 0 213 -94l-89 -90q-56 53 -125 53q-56 0 -93 -43t-37 -105q0 -63 37.5 -105.5t98.5 -42.5q63 0 123 57l89 -90q-44 -48 -94 -73t-125 -25z" />
    <glyph glyph-name="d" unicode="d" horiz-adv-x="675" 
d="M288 -10q-100 0 -172 75t-72 204q0 128 71.5 202.5t172.5 74.5q100 0 167 -80v264h152v-730h-152v77q-64 -87 -167 -87zM327 119q55 0 92.5 41.5t37.5 108.5q0 65 -37.5 106.5t-92.5 41.5t-93 -41.5t-38 -108.5q0 -65 38 -106.5t93 -41.5z" />
    <glyph glyph-name="e" unicode="e" horiz-adv-x="613" 
d="M322 -12q-122 0 -201 77.5t-79 201.5q0 117 75 198t190 81q127 0 194 -84t67 -207q0 -12 -2 -40h-373q11 -51 45 -78t86 -27q71 0 130 55l87 -77q-81 -100 -219 -100zM191 310h229q-7 52 -36.5 83t-76.5 31q-46 0 -76.5 -30.5t-39.5 -83.5z" />
    <glyph glyph-name="f" unicode="f" horiz-adv-x="382" 
d="M94 0v406h-63v125h63v34q0 87 43 130q42 42 123 42q61 0 108 -15v-126q-36 13 -69 13q-55 0 -55 -58v-21h123v-124h-121v-406h-152z" />
    <glyph glyph-name="g" unicode="g" horiz-adv-x="675" 
d="M308 -162q-131 0 -237 56l52 114q87 -49 181 -49q153 0 153 146v26q-36 -44 -76.5 -65.5t-98.5 -21.5q-99 0 -168.5 68t-69.5 184q0 115 70 182.5t168 67.5q100 0 173 -80v70h152v-415q0 -143 -68 -211q-72 -72 -231 -72zM326 170q56 0 93.5 35t37.5 91q0 54 -37.5 89
t-93.5 35t-93 -35t-37 -91q0 -55 37 -89.5t93 -34.5z" />
    <glyph glyph-name="h" unicode="h" horiz-adv-x="623" 
d="M68 0v730h152v-270q67 86 157 86q86 0 134 -53t48 -146v-347h-152v299q0 53 -24 81t-68 28t-69.5 -28t-25.5 -81v-299h-152z" />
    <glyph glyph-name="i" unicode="i" horiz-adv-x="302" 
d="M71 595v135h160v-135h-160zM75 0v536h152v-536h-152z" />
    <glyph glyph-name="j" unicode="j" horiz-adv-x="302" 
d="M71 595v135h160v-135h-160zM55 -163q-35 0 -66 6v119q18 -3 32 -3q54 0 54 62v515h152v-527q0 -172 -172 -172z" />
    <glyph glyph-name="k" unicode="k" horiz-adv-x="592" 
d="M68 0v730h152v-389l178 195h182l-204 -211l211 -325h-174l-140 219l-53 -56v-163h-152z" />
    <glyph glyph-name="l" unicode="l" horiz-adv-x="302" 
d="M75 0v730h152v-730h-152z" />
    <glyph glyph-name="m" unicode="m" horiz-adv-x="950" 
d="M68 0v536h152v-76q67 86 158 86q107 0 151 -85q73 85 176 85q86 0 133.5 -50.5t47.5 -146.5v-349h-152v299q0 109 -89 109q-43 0 -67.5 -28t-24.5 -81v-299h-152v299q0 109 -89 109q-43 0 -67.5 -28t-24.5 -81v-299h-152z" />
    <glyph glyph-name="n" unicode="n" horiz-adv-x="623" 
d="M68 0v536h152v-76q67 86 157 86q86 0 134 -53t48 -146v-347h-152v299q0 53 -24 81t-68 28t-69.5 -28t-25.5 -81v-299h-152z" />
    <glyph glyph-name="o" unicode="o" horiz-adv-x="664" 
d="M331 -12q-124 0 -206.5 80.5t-82.5 198.5q0 117 83.5 198t207.5 81t206.5 -80.5t82.5 -198.5q0 -117 -83.5 -198t-207.5 -81zM333 119q63 0 101 42.5t38 105.5q0 61 -39.5 104.5t-101.5 43.5q-63 0 -101 -42.5t-38 -105.5q0 -61 39.5 -104.5t101.5 -43.5z" />
    <glyph glyph-name="p" unicode="p" horiz-adv-x="675" 
d="M68 -160v696h152v-77q64 87 167 87q100 0 172 -75t72 -204q0 -128 -71.5 -202.5t-172.5 -74.5q-100 0 -167 80v-230h-152zM348 119q55 0 93 41.5t38 108.5q0 65 -38 106.5t-93 41.5t-92.5 -41.5t-37.5 -108.5q0 -65 37.5 -106.5t92.5 -41.5z" />
    <glyph glyph-name="q" unicode="q" horiz-adv-x="675" 
d="M455 -160v237q-64 -87 -167 -87q-100 0 -172 75t-72 204q0 128 71.5 202.5t172.5 74.5q100 0 167 -80v70h152v-696h-152zM327 119q55 0 92.5 41.5t37.5 108.5q0 65 -37.5 106.5t-92.5 41.5t-93 -41.5t-38 -108.5q0 -65 38 -106.5t93 -41.5z" />
    <glyph glyph-name="r" unicode="r" horiz-adv-x="418" 
d="M68 0v536h152v-108q52 123 171 118v-159h-8q-78 0 -120.5 -47.5t-42.5 -141.5v-198h-152z" />
    <glyph glyph-name="s" unicode="s" horiz-adv-x="502" 
d="M256 -10q-127 0 -230 81l65 100q88 -64 169 -64q64 0 64 42q0 5 -1.5 10t-5.5 9t-8.5 7.5t-12 7l-13 6t-15.5 6t-17 5.5l-19 5.5l-19 5.5q-34 10 -57.5 20.5t-49.5 29t-39.5 47t-13.5 66.5q0 79 56 124.5t140 45.5q108 0 200 -62l-58 -105q-85 50 -145 50q-56 0 -56 -39
q0 -25 57 -46q4 -1 52 -18q27 -9 46 -17t43 -22t38.5 -29.5t24.5 -39.5t10 -53q0 -86 -56.5 -129.5t-148.5 -43.5z" />
    <glyph glyph-name="t" unicode="t" horiz-adv-x="415" 
d="M249 -9q-75 0 -115.5 36.5t-40.5 124.5v254h-64v130h64v137h152v-137h126v-130h-126v-229q0 -52 49 -52q40 0 75 19v-122q-52 -31 -120 -31z" />
    <glyph glyph-name="u" unicode="u" horiz-adv-x="623" 
d="M246 -10q-86 0 -134 53t-48 146v347h152v-299q0 -53 24 -81t68 -28t69.5 28t25.5 81v299h152v-536h-152v76q-67 -86 -157 -86z" />
    <glyph glyph-name="v" unicode="v" horiz-adv-x="600" 
d="M231 -4l-211 540h161l120 -359l121 359h158l-211 -540h-138z" />
    <glyph glyph-name="w" unicode="w" horiz-adv-x="861" 
d="M189 -4l-165 540h154l86 -325l101 327h131l102 -328l88 326h151l-167 -540h-137l-103 329l-105 -329h-136z" />
    <glyph glyph-name="x" unicode="x" horiz-adv-x="584" 
d="M23 0l188 272l-181 264h163l100 -156l101 156h159l-181 -261l189 -275h-163l-108 167l-108 -167h-159z" />
    <glyph glyph-name="y" unicode="y" horiz-adv-x="600" 
d="M196 -163q-72 0 -135 37l51 110q35 -21 65 -21q36 0 53 35l-210 538h161l122 -365l117 365h158l-206 -549q-31 -83 -70 -116.5t-106 -33.5z" />
    <glyph glyph-name="z" unicode="z" horiz-adv-x="563" 
d="M50 0v107l277 306h-268v123h457v-107l-278 -306h278v-123h-466z" />
    <glyph glyph-name="braceleft" unicode="{" horiz-adv-x="490" 
d="M416 -141q-132 23 -183 70t-51 128q0 7 1.5 33.5t1.5 35.5q0 58 -25 80.5t-85 22.5h-26v116h26q60 0 85 22.5t25 80.5q0 9 -1.5 35.5t-1.5 33.5q0 81 51 128t183 70l27 -101q-76 -22 -99 -46.5t-23 -72.5q0 -10 1.5 -36.5t1.5 -37.5q0 -100 -104 -134q104 -34 104 -134
q0 -11 -1.5 -37.5t-1.5 -36.5q0 -48 23 -72.5t99 -46.5z" />
    <glyph glyph-name="bar" unicode="|" horiz-adv-x="350" 
d="M115 -128v926h120v-926h-120z" />
    <glyph glyph-name="braceright" unicode="}" horiz-adv-x="490" 
d="M74 -141l-27 101q76 22 99 46.5t23 72.5q0 10 -1.5 36.5t-1.5 37.5q0 100 104 134q-104 34 -104 134q0 11 1.5 37.5t1.5 36.5q0 48 -23 72.5t-99 46.5l27 101q132 -23 183 -70t51 -128q0 -7 -1.5 -33.5t-1.5 -35.5q0 -58 25 -80.5t85 -22.5h26v-116h-26q-60 0 -85 -22.5
t-25 -80.5q0 -9 1.5 -35.5t1.5 -33.5q0 -81 -51 -128t-183 -70z" />
    <glyph glyph-name="asciitilde" unicode="~" horiz-adv-x="510" 
d="M130 224l-81 25q19 69 47 103.5t77 34.5q34 0 84.5 -19.5t65.5 -19.5q22 0 33.5 11.5t23.5 37.5l81 -25q-19 -69 -47 -103.5t-77 -34.5q-34 0 -84.5 19.5t-65.5 19.5q-22 0 -33.5 -11.5t-23.5 -37.5z" />
    <glyph glyph-name="nbspace" unicode="&#xa0;" horiz-adv-x="300" 
 />
    <glyph glyph-name="exclamdown" unicode="&#xa1;" horiz-adv-x="324" 
d="M81 540v160h162v-160h-162zM73 0v20l47 442h84l47 -442v-20h-178z" />
    <glyph glyph-name="cent" unicode="&#xa2;" horiz-adv-x="581" 
d="M208 -6l19 98q-81 30 -130.5 101.5t-49.5 161.5q0 117 80 198t200 81h6l14 72h104l-17 -88q59 -20 108 -74l-90 -97q-27 27 -49 38l-55 -277q55 7 108 56l86 -87q-88 -98 -214 -101l-16 -82h-104zM258 226l54 277q-52 -4 -85 -46t-33 -102q0 -90 64 -129z" />
    <glyph glyph-name="sterling" unicode="&#xa3;" horiz-adv-x="644" 
d="M60 0v101l76 25v141h-76v127h76v81q0 111 60 171q64 64 177 64q140 0 225 -115l-117 -94q-27 35 -51 50.5t-55 15.5q-35 0 -57 -22q-26 -26 -26 -74v-77h228v-127h-228v-134h304v-133h-536z" />
    <glyph glyph-name="currency" unicode="&#xa4;" horiz-adv-x="720" 
d="M437 -12q-112 0 -189 61.5t-107 167.5h-92v101h75q-1 10 -1 32q0 24 1 36h-75v101h94q32 102 108 163.5t183 61.5q87 0 144.5 -33t101.5 -95l-116 -88q-30 40 -60.5 59.5t-72.5 19.5q-87 0 -128 -88h185v-101h-208q-1 -11 -1 -36q0 -22 1 -32h208v-101h-186
q41 -92 135 -92q41 0 70 19t65 63l110 -81q-48 -67 -106 -102.5t-139 -35.5z" />
    <glyph glyph-name="yen" unicode="&#xa5;" horiz-adv-x="686" 
d="M269 0v92h-184v108h184v62h-184v108h143l-214 330h177l154 -259l155 259h172l-216 -330h145v-108h-184v-62h184v-108h-184v-92h-148z" />
    <glyph glyph-name="brokenbar" unicode="&#xa6;" horiz-adv-x="222" 
d="M182 411h-142v250h142v-250zM182 -89h-142v250h142v-250z" />
    <glyph glyph-name="section" unicode="&#xa7;" horiz-adv-x="632" 
d="M325 -10q-146 0 -233 95l82 82q72 -66 147 -66q66 0 66 38q0 18 -22.5 29.5t-87.5 25.5q-120 27 -171 60.5t-51 90.5q0 84 89 117q-42 33 -42 93q0 72 54.5 113.5t150.5 41.5q146 0 233 -95l-82 -82q-72 66 -147 66q-66 0 -66 -38q0 -17 21 -28.5t89 -26.5
q121 -27 171.5 -60t50.5 -91q0 -84 -89 -117q42 -33 42 -93q0 -71 -54.5 -113t-150.5 -42zM389 289q24 0 39.5 12t15.5 34q0 19 -23.5 32t-77.5 26q-72 18 -100 18q-24 0 -39.5 -12t-15.5 -34q0 -19 23.5 -32t77.5 -26q72 -18 100 -18z" />
    <glyph glyph-name="dieresis" unicode="&#xa8;" 
d="M284 595v135h146v-135h-146zM70 595v135h146v-135h-146z" />
    <glyph glyph-name="copyright" unicode="&#xa9;" horiz-adv-x="830" 
d="M414 -12q-151 0 -256 106t-105 256q0 149 106 255.5t257 106.5t256 -106t105 -256q0 -149 -106 -255.5t-257 -106.5zM414 28q136 0 228.5 94.5t92.5 229.5q0 134 -91.5 227t-227.5 93t-228.5 -94.5t-92.5 -229.5q0 -134 91.5 -227t227.5 -93zM419 156q-84 0 -140.5 57.5
t-56.5 141.5q0 83 56.5 141t143.5 58q91 0 152 -59l-55 -64q-48 43 -97 43q-48 0 -79 -34.5t-31 -85.5q0 -49 31 -83.5t79 -34.5q49 0 99 45l56 -56q-64 -69 -158 -69z" />
    <glyph glyph-name="ordfeminine" unicode="&#xaa;" horiz-adv-x="390" 
d="M153 399q-44 0 -72.5 24.5t-28.5 67.5q0 46 32 70t87 24q36 0 72 -12v5q0 54 -64 54q-38 0 -81 -16l-21 63q53 24 114 24q67 0 100 -33q32 -32 32 -94v-171h-81v32q-33 -38 -89 -38zM49 277v66h278v-66h-278zM178 457q29 0 47.5 14.5t18.5 37.5v15q-28 11 -54 11
q-57 0 -57 -42q0 -16 12.5 -26t32.5 -10z" />
    <glyph glyph-name="guillemotleft" unicode="&#xab;" horiz-adv-x="645" 
d="M481 40l-168 224v8l168 224l116 -56l-130 -171l130 -171zM209 40l-168 224v8l168 224l116 -56l-130 -171l130 -171z" />
    <glyph glyph-name="logicalnot" unicode="&#xac;" horiz-adv-x="640" 
d="M418 412h-340v136h482v-306h-142v170z" />
    <glyph glyph-name="uni00AD" unicode="&#xad;" horiz-adv-x="408" 
d="M50 237v146h308v-146h-308z" />
    <glyph glyph-name="registered" unicode="&#xae;" horiz-adv-x="830" 
d="M414 -12q-151 0 -256 106t-105 256q0 149 106 255.5t257 106.5t256 -106t105 -256q0 -149 -106 -255.5t-257 -106.5zM414 28q136 0 228.5 94.5t92.5 229.5q0 134 -91.5 227t-227.5 93t-228.5 -94.5t-92.5 -229.5q0 -134 91.5 -227t227.5 -93zM266 168v385h171
q77 0 119 -42q32 -32 32 -86q0 -89 -83 -119l94 -138h-99l-84 124h-65v-124h-85zM351 365h85q32 0 49 15.5t17 41.5q0 56 -68 56h-83v-113z" />
    <glyph glyph-name="macron" unicode="&#xaf;" 
d="M70 600v105h360v-105h-360z" />
    <glyph glyph-name="degree" unicode="&#xb0;" horiz-adv-x="480" 
d="M240 368q-69 0 -121 50.5t-52 119.5q0 68 52 118t121 50t121 -50.5t52 -119.5q0 -68 -52 -118t-121 -50zM240 443q39 0 65.5 28t26.5 67q0 38 -26.5 65.5t-65.5 27.5t-65.5 -28t-26.5 -67q0 -38 26.5 -65.5t65.5 -27.5z" />
    <glyph glyph-name="plusminus" unicode="&#xb1;" horiz-adv-x="640" 
d="M78 17v129h484v-129h-484zM250 207v141h-181v136h181v141h141v-141h178v-136h-178v-141h-141z" />
    <glyph glyph-name="twosuperior" unicode="&#xb2;" 
d="M0 0v700h500v-700h-500zM81 49h339l-170 255zM49 96l171 254l-171 254v-508zM450 96v508l-171 -254zM250 395l170 255h-339z" />
    <glyph glyph-name="threesuperior" unicode="&#xb3;" 
d="M0 0v700h500v-700h-500zM81 49h339l-170 255zM49 96l171 254l-171 254v-508zM450 96v508l-171 -254zM250 395l170 255h-339z" />
    <glyph glyph-name="acute" unicode="&#xb4;" 
d="M146 595l113 177l131 -57l-128 -120h-116z" />
    <glyph glyph-name="mu" unicode="&#xb5;" horiz-adv-x="628" 
d="M220 10v-170h-152v696h152v-302q0 -45 26 -77.5t65 -32.5q45 0 70.5 30.5t25.5 84.5v297h153v-536h-153v79q-52 -83 -137 -83q-39 0 -50 14z" />
    <glyph glyph-name="paragraph" unicode="&#xb6;" horiz-adv-x="590" 
d="M352 0v230h-24q-131 0 -212 60.5t-81 174.5q0 109 75.5 172t200.5 63h195v-700h-154z" />
    <glyph glyph-name="periodcentered" unicode="&#xb7;" horiz-adv-x="286" 
d="M62 230v160h162v-160h-162z" />
    <glyph glyph-name="cedilla" unicode="&#xb8;" 
d="M245 -173l-127 53l89 130h112z" />
    <glyph glyph-name="onesuperior" unicode="&#xb9;" 
d="M0 0v700h500v-700h-500zM81 49h339l-170 255zM49 96l171 254l-171 254v-508zM450 96v508l-171 -254zM250 395l170 255h-339z" />
    <glyph glyph-name="ordmasculine" unicode="&#xba;" horiz-adv-x="390" 
d="M194 398q-66 0 -109.5 44t-43.5 110q0 64 44.5 108.5t110.5 44.5t109.5 -44t43.5 -110q0 -64 -44.5 -108.5t-110.5 -44.5zM51 277v66h288v-66h-288zM196 470q32 0 51.5 23.5t19.5 58.5q0 33 -20.5 57t-52.5 24t-51.5 -23.5t-19.5 -58.5q0 -33 20.5 -57t52.5 -24z" />
    <glyph glyph-name="guillemotright" unicode="&#xbb;" horiz-adv-x="645" 
d="M436 40l-116 56l130 171l-130 171l116 58l168 -224v-8zM164 40l-116 56l130 171l-130 171l116 58l168 -224v-8z" />
    <glyph glyph-name="onequarter" unicode="&#xbc;" 
d="M0 0v700h500v-700h-500zM81 49h339l-170 255zM49 96l171 254l-171 254v-508zM450 96v508l-171 -254zM250 395l170 255h-339z" />
    <glyph glyph-name="onehalf" unicode="&#xbd;" 
d="M0 0v700h500v-700h-500zM81 49h339l-170 255zM49 96l171 254l-171 254v-508zM450 96v508l-171 -254zM250 395l170 255h-339z" />
    <glyph glyph-name="threequarters" unicode="&#xbe;" 
d="M0 0v700h500v-700h-500zM81 49h339l-170 255zM49 96l171 254l-171 254v-508zM450 96v508l-171 -254zM250 395l170 255h-339z" />
    <glyph glyph-name="questiondown" unicode="&#xbf;" horiz-adv-x="544" 
d="M218 540v160h162v-160h-162zM279 -9q-110 0 -176 54.5t-66 152.5v2q0 161 197 201l11 61h102l23 -162l-5 -5q-175 -7 -175 -91v-2q0 -34 24 -52.5t68 -18.5q81 0 150 69l92 -101q-98 -108 -245 -108z" />
    <glyph glyph-name="Agrave" unicode="&#xc0;" horiz-adv-x="790" 
d="M24 0l300 705h142l300 -705h-161l-64 157h-296l-64 -157h-157zM300 293h186l-93 227zM343 755l-128 120l131 57l113 -177h-116z" />
    <glyph glyph-name="Aacute" unicode="&#xc1;" horiz-adv-x="790" 
d="M24 0l300 705h142l300 -705h-161l-64 157h-296l-64 -157h-157zM300 293h186l-93 227zM331 755l113 177l131 -57l-128 -120h-116z" />
    <glyph glyph-name="Acircumflex" unicode="&#xc2;" horiz-adv-x="790" 
d="M24 0l300 705h142l300 -705h-161l-64 157h-296l-64 -157h-157zM300 293h186l-93 227zM200 755l123 157h144l123 -157h-117l-79 66l-79 -66h-115z" />
    <glyph glyph-name="Atilde" unicode="&#xc3;" horiz-adv-x="790" 
d="M24 0l300 705h142l300 -705h-161l-64 157h-296l-64 -157h-157zM300 293h186l-93 227zM270 745l-81 25q19 69 47 103.5t77 34.5q34 0 84.5 -19.5t65.5 -19.5q22 0 33.5 11.5t23.5 37.5l81 -25q-19 -69 -47 -103.5t-77 -34.5q-34 0 -84.5 19.5t-65.5 19.5
q-22 0 -33.5 -11.5t-23.5 -37.5z" />
    <glyph glyph-name="Adieresis" unicode="&#xc4;" horiz-adv-x="790" 
d="M24 0l300 705h142l300 -705h-161l-64 157h-296l-64 -157h-157zM300 293h186l-93 227zM429 755v135h146v-135h-146zM215 755v135h146v-135h-146z" />
    <glyph glyph-name="Aring" unicode="&#xc5;" horiz-adv-x="790" 
d="M24 0l292 687q-42 37 -42 87v2q0 47 36.5 81.5t84.5 34.5t84.5 -34.5t36.5 -81.5v-2q0 -50 -42 -87l292 -687h-161l-64 157h-296l-64 -157h-157zM395 713q25 0 43.5 18t18.5 43v2q0 25 -18.5 43t-43.5 18t-43.5 -18t-18.5 -43v-2q0 -25 18.5 -43t43.5 -18zM300 293h186
l-93 227z" />
    <glyph glyph-name="AE" unicode="&#xc6;" horiz-adv-x="1045" 
d="M9 0l377 700h601v-137h-350v-142h305v-137h-305v-147h355v-137h-508v157h-235l-83 -157h-157zM321 293h163v274h-18z" />
    <glyph glyph-name="Ccedilla" unicode="&#xc7;" horiz-adv-x="738" 
d="M373 -173l-127 53l80 118q-121 28 -197 124.5t-76 225.5v2q0 152 103 257t262 105q93 0 158 -27.5t118 -80.5l-98 -113q-87 79 -179 79q-87 0 -145 -63.5t-58 -154.5v-2q0 -92 57.5 -156t145.5 -64q56 0 97 20t87 62l98 -99q-54 -58 -115 -89t-146 -35z" />
    <glyph glyph-name="Egrave" unicode="&#xc8;" horiz-adv-x="670" 
d="M84 0v700h528v-137h-375v-142h330v-137h-330v-147h380v-137h-533zM317 755l-128 120l131 57l113 -177h-116z" />
    <glyph glyph-name="Eacute" unicode="&#xc9;" horiz-adv-x="670" 
d="M84 0v700h528v-137h-375v-142h330v-137h-330v-147h380v-137h-533zM264 755l113 177l131 -57l-128 -120h-116z" />
    <glyph glyph-name="Ecircumflex" unicode="&#xca;" horiz-adv-x="670" 
d="M84 0v700h528v-137h-375v-142h330v-137h-330v-147h380v-137h-533zM151 755l123 157h144l123 -157h-117l-79 66l-79 -66h-115z" />
    <glyph glyph-name="Edieresis" unicode="&#xcb;" horiz-adv-x="670" 
d="M84 0v700h528v-137h-375v-142h330v-137h-330v-147h380v-137h-533zM380 755v135h146v-135h-146zM166 755v135h146v-135h-146z" />
    <glyph glyph-name="Igrave" unicode="&#xcc;" horiz-adv-x="336" 
d="M91 0v700h154v-700h-154zM116 755l-128 120l131 57l113 -177h-116z" />
    <glyph glyph-name="Iacute" unicode="&#xcd;" horiz-adv-x="336" 
d="M91 0v700h154v-700h-154zM104 755l113 177l131 -57l-128 -120h-116z" />
    <glyph glyph-name="Icircumflex" unicode="&#xce;" horiz-adv-x="336" 
d="M91 0v700h154v-700h-154zM-27 755l123 157h144l123 -157h-117l-79 66l-79 -66h-115z" />
    <glyph glyph-name="Idieresis" unicode="&#xcf;" horiz-adv-x="336" 
d="M91 0v700h154v-700h-154zM202 755v135h146v-135h-146zM-12 755v135h146v-135h-146z" />
    <glyph glyph-name="Eth" unicode="&#xd0;" horiz-adv-x="812" 
d="M114 0v284h-75v136h75v280h273q164 0 268 -99.5t104 -250.5q0 -150 -104.5 -250t-267.5 -100h-273zM266 139h121q95 0 153 58.5t58 152.5q0 93 -58.5 152t-152.5 59h-121v-141h152v-136h-152v-145z" />
    <glyph glyph-name="Ntilde" unicode="&#xd1;" horiz-adv-x="790" 
d="M84 0v700h142l328 -431v431h152v-700h-131l-339 445v-445h-152zM270 745l-81 25q19 69 47 103.5t77 34.5q34 0 84.5 -19.5t65.5 -19.5q22 0 33.5 11.5t23.5 37.5l81 -25q-19 -69 -47 -103.5t-77 -34.5q-34 0 -84.5 19.5t-65.5 19.5q-22 0 -33.5 -11.5t-23.5 -37.5z" />
    <glyph glyph-name="Ograve" unicode="&#xd2;" horiz-adv-x="850" 
d="M424 -12q-160 0 -265.5 105t-105.5 257q0 151 106.5 256.5t266.5 105.5t265.5 -105t105.5 -257q0 -151 -106.5 -256.5t-266.5 -105.5zM426 130q92 0 151 63.5t59 156.5q0 92 -60 156t-152 64t-151 -63.5t-59 -156.5q0 -92 60 -156t152 -64zM363 755l-128 120l131 57
l113 -177h-116z" />
    <glyph glyph-name="Oacute" unicode="&#xd3;" horiz-adv-x="850" 
d="M424 -12q-160 0 -265.5 105t-105.5 257q0 151 106.5 256.5t266.5 105.5t265.5 -105t105.5 -257q0 -151 -106.5 -256.5t-266.5 -105.5zM426 130q92 0 151 63.5t59 156.5q0 92 -60 156t-152 64t-151 -63.5t-59 -156.5q0 -92 60 -156t152 -64zM371 755l113 177l131 -57
l-128 -120h-116z" />
    <glyph glyph-name="Ocircumflex" unicode="&#xd4;" horiz-adv-x="850" 
d="M424 -12q-160 0 -265.5 105t-105.5 257q0 151 106.5 256.5t266.5 105.5t265.5 -105t105.5 -257q0 -151 -106.5 -256.5t-266.5 -105.5zM426 130q92 0 151 63.5t59 156.5q0 92 -60 156t-152 64t-151 -63.5t-59 -156.5q0 -92 60 -156t152 -64zM230 755l123 157h144l123 -157
h-117l-79 66l-79 -66h-115z" />
    <glyph glyph-name="Otilde" unicode="&#xd5;" horiz-adv-x="850" 
d="M424 -12q-160 0 -265.5 105t-105.5 257q0 151 106.5 256.5t266.5 105.5t265.5 -105t105.5 -257q0 -151 -106.5 -256.5t-266.5 -105.5zM426 130q92 0 151 63.5t59 156.5q0 92 -60 156t-152 64t-151 -63.5t-59 -156.5q0 -92 60 -156t152 -64zM300 745l-81 25
q19 69 47 103.5t77 34.5q34 0 84.5 -19.5t65.5 -19.5q22 0 33.5 11.5t23.5 37.5l81 -25q-19 -69 -47 -103.5t-77 -34.5q-34 0 -84.5 19.5t-65.5 19.5q-22 0 -33.5 -11.5t-23.5 -37.5z" />
    <glyph glyph-name="Odieresis" unicode="&#xd6;" horiz-adv-x="850" 
d="M424 -12q-160 0 -265.5 105t-105.5 257q0 151 106.5 256.5t266.5 105.5t265.5 -105t105.5 -257q0 -151 -106.5 -256.5t-266.5 -105.5zM426 130q92 0 151 63.5t59 156.5q0 92 -60 156t-152 64t-151 -63.5t-59 -156.5q0 -92 60 -156t152 -64zM459 755v135h146v-135h-146z
M245 755v135h146v-135h-146z" />
    <glyph glyph-name="multiply" unicode="&#xd7;" horiz-adv-x="640" 
d="M582 187l-99 -98l-164 163l-163 -163l-99 98l164 164l-164 164l99 98l163 -163l164 163l99 -98l-164 -164z" />
    <glyph glyph-name="Oslash" unicode="&#xd8;" horiz-adv-x="850" 
d="M424 -12q-107 0 -193 50l-39 -43h-147l98 113q-90 101 -90 242q0 151 106.5 256.5t266.5 105.5q107 0 193 -50l39 43h147l-98 -114q90 -99 90 -241q0 -151 -106.5 -256.5t-266.5 -105.5zM245 227l278 322q-46 24 -99 24q-92 0 -152.5 -64.5t-60.5 -158.5q0 -67 34 -123z
M426 127q92 0 152.5 64.5t60.5 158.5q0 67 -34 123l-278 -322q46 -24 99 -24z" />
    <glyph glyph-name="Ugrave" unicode="&#xd9;" horiz-adv-x="756" 
d="M376 -11q-143 0 -223 79.5t-80 231.5v400h154v-396q0 -84 39.5 -128.5t111.5 -44.5t111.5 43t39.5 125v401h154v-395q0 -156 -81.5 -236t-225.5 -80zM331 750l-128 120l131 57l113 -177h-116z" />
    <glyph glyph-name="Uacute" unicode="&#xda;" horiz-adv-x="756" 
d="M376 -11q-143 0 -223 79.5t-80 231.5v400h154v-396q0 -84 39.5 -128.5t111.5 -44.5t111.5 43t39.5 125v401h154v-395q0 -156 -81.5 -236t-225.5 -80zM309 750l113 177l131 -57l-128 -120h-116z" />
    <glyph glyph-name="Ucircumflex" unicode="&#xdb;" horiz-adv-x="756" 
d="M376 -11q-143 0 -223 79.5t-80 231.5v400h154v-396q0 -84 39.5 -128.5t111.5 -44.5t111.5 43t39.5 125v401h154v-395q0 -156 -81.5 -236t-225.5 -80zM183 755l123 157h144l123 -157h-117l-79 66l-79 -66h-115z" />
    <glyph glyph-name="Udieresis" unicode="&#xdc;" horiz-adv-x="756" 
d="M376 -11q-143 0 -223 79.5t-80 231.5v400h154v-396q0 -84 39.5 -128.5t111.5 -44.5t111.5 43t39.5 125v401h154v-395q0 -156 -81.5 -236t-225.5 -80zM412 755v135h146v-135h-146zM198 755v135h146v-135h-146z" />
    <glyph glyph-name="Yacute" unicode="&#xdd;" horiz-adv-x="716" 
d="M281 0v276l-269 424h180l167 -281l170 281h175l-269 -421v-279h-154zM299 750l113 177l131 -57l-128 -120h-116z" />
    <glyph glyph-name="Thorn" unicode="&#xde;" horiz-adv-x="673" 
d="M84 0v700h154v-102h132q124 0 196 -66.5t72 -175.5v-2q0 -117 -80 -181.5t-203 -64.5h-117v-108h-154zM238 245h122q56 0 89 30t33 76v2q0 51 -33 78.5t-92 27.5h-119v-214z" />
    <glyph glyph-name="germandbls" unicode="&#xdf;" horiz-adv-x="620" 
d="M299 -2v114q128 6 128 94q0 39 -35.5 64t-92.5 33v100q88 56 88 126q0 37 -21.5 58.5t-58.5 21.5q-39 0 -63.5 -27.5t-24.5 -72.5v-509h-151v503q0 110 66 172t180 62q104 0 163.5 -55t59.5 -141q0 -59 -24 -96t-67 -67q131 -57 131 -179q0 -94 -69 -147.5t-188 -53.5
h-21z" />
    <glyph glyph-name="agrave" unicode="&#xe0;" horiz-adv-x="592" 
d="M220 -10q-79 0 -131.5 44t-52.5 122q0 85 58.5 128t157.5 43q67 0 131 -22v9q0 98 -115 98q-69 0 -148 -29l-38 116q98 43 208 43q121 0 181 -60q58 -58 58 -171v-311h-147v58q-61 -68 -162 -68zM266 95q53 0 86 26.5t33 67.5v27q-43 20 -97 20q-50 0 -77.5 -19.5
t-27.5 -56.5q0 -30 23 -47.5t60 -17.5zM254 595l-128 120l131 57l113 -177h-116z" />
    <glyph glyph-name="aacute" unicode="&#xe1;" horiz-adv-x="592" 
d="M220 -10q-79 0 -131.5 44t-52.5 122q0 85 58.5 128t157.5 43q67 0 131 -22v9q0 98 -115 98q-69 0 -148 -29l-38 116q98 43 208 43q121 0 181 -60q58 -58 58 -171v-311h-147v58q-61 -68 -162 -68zM266 95q53 0 86 26.5t33 67.5v27q-43 20 -97 20q-50 0 -77.5 -19.5
t-27.5 -56.5q0 -30 23 -47.5t60 -17.5zM227 595l113 177l131 -57l-128 -120h-116z" />
    <glyph glyph-name="acircumflex" unicode="&#xe2;" horiz-adv-x="592" 
d="M220 -10q-79 0 -131.5 44t-52.5 122q0 85 58.5 128t157.5 43q67 0 131 -22v9q0 98 -115 98q-69 0 -148 -29l-38 116q98 43 208 43q121 0 181 -60q58 -58 58 -171v-311h-147v58q-61 -68 -162 -68zM266 95q53 0 86 26.5t33 67.5v27q-43 20 -97 20q-50 0 -77.5 -19.5
t-27.5 -56.5q0 -30 23 -47.5t60 -17.5zM99 595l123 157h144l123 -157h-117l-79 66l-79 -66h-115z" />
    <glyph glyph-name="atilde" unicode="&#xe3;" horiz-adv-x="592" 
d="M220 -10q-79 0 -131.5 44t-52.5 122q0 85 58.5 128t157.5 43q67 0 131 -22v9q0 98 -115 98q-69 0 -148 -29l-38 116q98 43 208 43q121 0 181 -60q58 -58 58 -171v-311h-147v58q-61 -68 -162 -68zM266 95q53 0 86 26.5t33 67.5v27q-43 20 -97 20q-50 0 -77.5 -19.5
t-27.5 -56.5q0 -30 23 -47.5t60 -17.5zM171 585l-81 25q19 69 47 103.5t77 34.5q34 0 84.5 -19.5t65.5 -19.5q22 0 33.5 11.5t23.5 37.5l81 -25q-19 -69 -47 -103.5t-77 -34.5q-34 0 -84.5 19.5t-65.5 19.5q-22 0 -33.5 -11.5t-23.5 -37.5z" />
    <glyph glyph-name="adieresis" unicode="&#xe4;" horiz-adv-x="592" 
d="M220 -10q-79 0 -131.5 44t-52.5 122q0 85 58.5 128t157.5 43q67 0 131 -22v9q0 98 -115 98q-69 0 -148 -29l-38 116q98 43 208 43q121 0 181 -60q58 -58 58 -171v-311h-147v58q-61 -68 -162 -68zM266 95q53 0 86 26.5t33 67.5v27q-43 20 -97 20q-50 0 -77.5 -19.5
t-27.5 -56.5q0 -30 23 -47.5t60 -17.5zM328 595v135h146v-135h-146zM114 595v135h146v-135h-146z" />
    <glyph glyph-name="aring" unicode="&#xe5;" horiz-adv-x="592" 
d="M220 -10q-79 0 -131.5 44t-52.5 122q0 85 58.5 128t157.5 43q67 0 131 -22v9q0 98 -115 98q-69 0 -148 -29l-38 116q98 43 208 43q121 0 181 -60q58 -58 58 -171v-311h-147v58q-61 -68 -162 -68zM266 95q53 0 86 26.5t33 67.5v27q-43 20 -97 20q-50 0 -77.5 -19.5
t-27.5 -56.5q0 -30 23 -47.5t60 -17.5zM294 593q-48 0 -84.5 34.5t-36.5 81.5v2q0 47 36.5 81.5t84.5 34.5t84.5 -34.5t36.5 -81.5v-2q0 -47 -36.5 -81.5t-84.5 -34.5zM294 648q25 0 43.5 18t18.5 43v2q0 25 -18.5 43t-43.5 18t-43.5 -18t-18.5 -43v-2q0 -25 18.5 -43
t43.5 -18z" />
    <glyph glyph-name="ae" unicode="&#xe6;" horiz-adv-x="951" 
d="M238 -10q-89 0 -145.5 44t-56.5 122q0 85 58.5 128t157.5 43q67 0 131 -22v9q0 98 -115 98q-69 0 -148 -29l-38 116q98 43 208 43q126 0 182 -68q70 72 177 72q83 0 143 -42t87 -106t27 -143q0 -12 -2 -40h-373q11 -51 45 -78t86 -27q71 0 130 55l87 -77
q-81 -100 -219 -100q-125 0 -204 81q-107 -79 -218 -79zM529 310h229q-7 52 -36.5 83t-76.5 31q-46 0 -76.5 -30.5t-39.5 -83.5zM266 97q71 0 137 51q-15 35 -19 69q-45 19 -96 19q-50 0 -77.5 -19.5t-27.5 -56.5q0 -29 24 -46t59 -17z" />
    <glyph glyph-name="ccedilla" unicode="&#xe7;" horiz-adv-x="571" 
d="M281 -173l-127 53l82 120q-87 26 -140.5 99t-53.5 166v2q0 116 80 197.5t201 81.5q134 0 214 -90l-93 -100q-56 59 -122 59q-56 0 -93 -43t-37 -103v-2q0 -63 37.5 -105.5t98.5 -42.5q63 0 123 57l89 -90q-83 -90 -194 -97z" />
    <glyph glyph-name="egrave" unicode="&#xe8;" horiz-adv-x="613" 
d="M322 -12q-122 0 -201 77.5t-79 201.5q0 117 75 198t190 81q127 0 194 -84t67 -207q0 -12 -2 -40h-373q11 -51 45 -78t86 -27q71 0 130 55l87 -77q-81 -100 -219 -100zM191 310h229q-7 52 -36.5 83t-76.5 31q-46 0 -76.5 -30.5t-39.5 -83.5zM250 595l-128 120l131 57
l113 -177h-116z" />
    <glyph glyph-name="eacute" unicode="&#xe9;" horiz-adv-x="613" 
d="M322 -12q-122 0 -201 77.5t-79 201.5q0 117 75 198t190 81q127 0 194 -84t67 -207q0 -12 -2 -40h-373q11 -51 45 -78t86 -27q71 0 130 55l87 -77q-81 -100 -219 -100zM191 310h229q-7 52 -36.5 83t-76.5 31q-46 0 -76.5 -30.5t-39.5 -83.5zM246 595l113 177l131 -57
l-128 -120h-116z" />
    <glyph glyph-name="ecircumflex" unicode="&#xea;" horiz-adv-x="613" 
d="M322 -12q-122 0 -201 77.5t-79 201.5q0 117 75 198t190 81q127 0 194 -84t67 -207q0 -12 -2 -40h-373q11 -51 45 -78t86 -27q71 0 130 55l87 -77q-81 -100 -219 -100zM191 310h229q-7 52 -36.5 83t-76.5 31q-46 0 -76.5 -30.5t-39.5 -83.5zM111 595l123 157h144l123 -157
h-117l-79 66l-79 -66h-115z" />
    <glyph glyph-name="edieresis" unicode="&#xeb;" horiz-adv-x="613" 
d="M322 -12q-122 0 -201 77.5t-79 201.5q0 117 75 198t190 81q127 0 194 -84t67 -207q0 -12 -2 -40h-373q11 -51 45 -78t86 -27q71 0 130 55l87 -77q-81 -100 -219 -100zM191 310h229q-7 52 -36.5 83t-76.5 31q-46 0 -76.5 -30.5t-39.5 -83.5zM340 595v135h146v-135h-146z
M126 595v135h146v-135h-146z" />
    <glyph glyph-name="igrave" unicode="&#xec;" horiz-adv-x="302" 
d="M75 0v536h152v-536h-152zM101 595l-128 120l131 57l113 -177h-116z" />
    <glyph glyph-name="iacute" unicode="&#xed;" horiz-adv-x="302" 
d="M75 0v536h152v-536h-152zM85 595l113 177l131 -57l-128 -120h-116z" />
    <glyph glyph-name="icircumflex" unicode="&#xee;" horiz-adv-x="302" 
d="M75 0v536h152v-536h-152zM-44 595l123 157h144l123 -157h-117l-79 66l-79 -66h-115z" />
    <glyph glyph-name="idieresis" unicode="&#xef;" horiz-adv-x="302" 
d="M75 0v536h152v-536h-152zM185 595v135h146v-135h-146zM-29 595v135h146v-135h-146z" />
    <glyph glyph-name="eth" unicode="&#xf0;" horiz-adv-x="648" 
d="M319 -12q-119 0 -198 76t-79 188q0 104 64 169t165 65q63 0 123 -32l-87 116l-114 -47l-56 75l115 46l-64 86h171l23 -33l100 41l55 -75l-102 -41l81 -115q47 -67 67.5 -123.5t20.5 -121.5q0 -116 -77 -195t-208 -79zM324 116q60 0 96 37.5t36 95.5q0 55 -37 92t-96 37
q-60 0 -96.5 -36.5t-36.5 -94.5q0 -56 37.5 -93.5t96.5 -37.5z" />
    <glyph glyph-name="ntilde" unicode="&#xf1;" horiz-adv-x="623" 
d="M68 0v536h152v-76q67 86 157 86q86 0 134 -53t48 -146v-347h-152v299q0 53 -24 81t-68 28t-69.5 -28t-25.5 -81v-299h-152zM191 585l-81 25q19 69 47 103.5t77 34.5q34 0 84.5 -19.5t65.5 -19.5q22 0 33.5 11.5t23.5 37.5l81 -25q-19 -69 -47 -103.5t-77 -34.5
q-34 0 -84.5 19.5t-65.5 19.5q-22 0 -33.5 -11.5t-23.5 -37.5z" />
    <glyph glyph-name="ograve" unicode="&#xf2;" horiz-adv-x="664" 
d="M331 -12q-124 0 -206.5 80.5t-82.5 198.5q0 117 83.5 198t207.5 81t206.5 -80.5t82.5 -198.5q0 -117 -83.5 -198t-207.5 -81zM333 119q63 0 101 42.5t38 105.5q0 61 -39.5 104.5t-101.5 43.5q-63 0 -101 -42.5t-38 -105.5q0 -61 39.5 -104.5t101.5 -43.5zM274 595
l-128 120l131 57l113 -177h-116z" />
    <glyph glyph-name="oacute" unicode="&#xf3;" horiz-adv-x="664" 
d="M331 -12q-124 0 -206.5 80.5t-82.5 198.5q0 117 83.5 198t207.5 81t206.5 -80.5t82.5 -198.5q0 -117 -83.5 -198t-207.5 -81zM333 119q63 0 101 42.5t38 105.5q0 61 -39.5 104.5t-101.5 43.5q-63 0 -101 -42.5t-38 -105.5q0 -61 39.5 -104.5t101.5 -43.5zM274 595
l113 177l131 -57l-128 -120h-116z" />
    <glyph glyph-name="ocircumflex" unicode="&#xf4;" horiz-adv-x="664" 
d="M331 -12q-124 0 -206.5 80.5t-82.5 198.5q0 117 83.5 198t207.5 81t206.5 -80.5t82.5 -198.5q0 -117 -83.5 -198t-207.5 -81zM333 119q63 0 101 42.5t38 105.5q0 61 -39.5 104.5t-101.5 43.5q-63 0 -101 -42.5t-38 -105.5q0 -61 39.5 -104.5t101.5 -43.5zM137 595
l123 157h144l123 -157h-117l-79 66l-79 -66h-115z" />
    <glyph glyph-name="otilde" unicode="&#xf5;" horiz-adv-x="664" 
d="M331 -12q-124 0 -206.5 80.5t-82.5 198.5q0 117 83.5 198t207.5 81t206.5 -80.5t82.5 -198.5q0 -117 -83.5 -198t-207.5 -81zM333 119q63 0 101 42.5t38 105.5q0 61 -39.5 104.5t-101.5 43.5q-63 0 -101 -42.5t-38 -105.5q0 -61 39.5 -104.5t101.5 -43.5zM207 585l-81 25
q19 69 47 103.5t77 34.5q34 0 84.5 -19.5t65.5 -19.5q22 0 33.5 11.5t23.5 37.5l81 -25q-19 -69 -47 -103.5t-77 -34.5q-34 0 -84.5 19.5t-65.5 19.5q-22 0 -33.5 -11.5t-23.5 -37.5z" />
    <glyph glyph-name="odieresis" unicode="&#xf6;" horiz-adv-x="664" 
d="M331 -12q-124 0 -206.5 80.5t-82.5 198.5q0 117 83.5 198t207.5 81t206.5 -80.5t82.5 -198.5q0 -117 -83.5 -198t-207.5 -81zM333 119q63 0 101 42.5t38 105.5q0 61 -39.5 104.5t-101.5 43.5q-63 0 -101 -42.5t-38 -105.5q0 -61 39.5 -104.5t101.5 -43.5zM366 595v135
h146v-135h-146zM152 595v135h146v-135h-146z" />
    <glyph glyph-name="divide" unicode="&#xf7;" horiz-adv-x="640" 
d="M79 286v137h481v-137h-481zM242 500v151h149v-151h-149zM242 58v151h149v-151h-149z" />
    <glyph glyph-name="oslash" unicode="&#xf8;" horiz-adv-x="664" 
d="M331 -12q-77 0 -144 35l-27 -28h-133l80 92q-65 76 -65 180q0 117 83.5 198t207.5 81q78 0 143 -35l28 30h133l-81 -93q66 -75 66 -181q0 -117 -83.5 -198t-207.5 -81zM204 197l184 210q-26 12 -57 12q-65 0 -104 -43.5t-39 -108.5q0 -36 16 -70zM333 115q65 0 104 43.5
t39 108.5q0 36 -16 70l-184 -211q27 -11 57 -11z" />
    <glyph glyph-name="ugrave" unicode="&#xf9;" horiz-adv-x="623" 
d="M246 -10q-86 0 -134 53t-48 146v347h152v-299q0 -53 24 -81t68 -28t69.5 28t25.5 81v299h152v-536h-152v76q-67 -86 -157 -86zM269 595l-128 120l131 57l113 -177h-116z" />
    <glyph glyph-name="uacute" unicode="&#xfa;" horiz-adv-x="623" 
d="M246 -10q-86 0 -134 53t-48 146v347h152v-299q0 -53 24 -81t68 -28t69.5 28t25.5 81v299h152v-536h-152v76q-67 -86 -157 -86zM237 595l113 177l131 -57l-128 -120h-116z" />
    <glyph glyph-name="ucircumflex" unicode="&#xfb;" horiz-adv-x="623" 
d="M246 -10q-86 0 -134 53t-48 146v347h152v-299q0 -53 24 -81t68 -28t69.5 28t25.5 81v299h152v-536h-152v76q-67 -86 -157 -86zM116 595l123 157h144l123 -157h-117l-79 66l-79 -66h-115z" />
    <glyph glyph-name="udieresis" unicode="&#xfc;" horiz-adv-x="623" 
d="M246 -10q-86 0 -134 53t-48 146v347h152v-299q0 -53 24 -81t68 -28t69.5 28t25.5 81v299h152v-536h-152v76q-67 -86 -157 -86zM345 595v135h146v-135h-146zM131 595v135h146v-135h-146z" />
    <glyph glyph-name="yacute" unicode="&#xfd;" horiz-adv-x="600" 
d="M196 -163q-72 0 -135 37l51 110q35 -21 65 -21q36 0 53 35l-210 538h161l122 -365l117 365h158l-206 -549q-31 -83 -70 -116.5t-106 -33.5zM229 595l113 177l131 -57l-128 -120h-116z" />
    <glyph glyph-name="thorn" unicode="&#xfe;" horiz-adv-x="675" 
d="M68 -160v890h152v-271q64 87 167 87q100 0 172 -74.5t72 -202.5v-2q0 -128 -71.5 -202.5t-172.5 -74.5q-100 0 -167 80v-230h-152zM348 119q55 0 93 41t38 107v2q0 65 -38 106.5t-93 41.5t-92.5 -41.5t-37.5 -106.5v-2q0 -65 37.5 -106.5t92.5 -41.5z" />
    <glyph glyph-name="ydieresis" unicode="&#xff;" horiz-adv-x="600" 
d="M196 -163q-72 0 -135 37l51 110q35 -21 65 -21q36 0 53 35l-210 538h161l122 -365l117 365h158l-206 -549q-31 -83 -70 -116.5t-106 -33.5zM334 595v135h146v-135h-146zM120 595v135h146v-135h-146z" />
    <glyph glyph-name="dotlessi" unicode="&#x131;" horiz-adv-x="302" 
d="M75 0v536h152v-536h-152z" />
    <glyph glyph-name="Lslash" unicode="&#x141;" horiz-adv-x="649" 
d="M114 0v262l-75 -22v143l75 22v295h152v-249l192 57v-143l-192 -57v-168h351v-140h-503z" />
    <glyph glyph-name="lslash" unicode="&#x142;" horiz-adv-x="362" 
d="M106 0v280l-76 -23v143l76 23v307h150v-263l76 23v-143l-76 -23v-324h-150z" />
    <glyph glyph-name="OE" unicode="&#x152;" horiz-adv-x="1075" 
d="M425 0q-164 0 -268 99.5t-104 250.5q0 150 104.5 250t267.5 100h592v-137h-350v-142h305v-137h-305v-147h355v-137h-597zM425 139h89v422h-89q-95 0 -153 -58.5t-58 -152.5q0 -93 58.5 -152t152.5 -59z" />
    <glyph glyph-name="oe" unicode="&#x153;" horiz-adv-x="1033" 
d="M322 -12q-115 0 -197.5 81.5t-82.5 197.5t83.5 197.5t202.5 81.5q124 0 202 -89q76 89 197 89q127 0 194 -84t67 -207q0 -12 -2 -40h-373q11 -51 45 -78t86 -27q71 0 130 55l87 -77q-81 -100 -219 -100q-133 0 -214 91q-80 -91 -206 -91zM611 310h229q-7 52 -36.5 83
t-76.5 31q-46 0 -76.5 -30.5t-39.5 -83.5zM328 119q61 0 97.5 42.5t36.5 105.5q0 61 -38.5 104.5t-97.5 43.5q-61 0 -97.5 -43t-36.5 -105q0 -61 38.5 -104.5t97.5 -43.5z" />
    <glyph glyph-name="Scaron" unicode="&#x160;" horiz-adv-x="640" 
d="M333 -10q-172 0 -297 112l91 109q103 -85 209 -85q47 0 74 18t27 50q0 30 -28 48.5t-113 40.5q-60 15 -97 29.5t-70.5 38.5t-49 60.5t-15.5 87.5q0 95 68.5 153t176.5 58q149 0 260 -89l-80 -116q-99 69 -182 69q-43 0 -66.5 -17.5t-23.5 -45.5q0 -34 29 -51t122 -41
q114 -30 168 -77t54 -135q0 -102 -70.5 -159.5t-186.5 -57.5zM245 755l-123 157h117l79 -66l79 66h115l-123 -157h-144z" />
    <glyph glyph-name="scaron" unicode="&#x161;" horiz-adv-x="502" 
d="M256 -10q-127 0 -230 81l65 100q88 -64 169 -64q64 0 64 42q0 5 -1.5 10t-5.5 9t-8.5 7.5t-12 7l-13 6t-15.5 6t-17 5.5l-19 5.5l-19 5.5q-34 10 -57.5 20.5t-49.5 29t-39.5 47t-13.5 66.5q0 79 56 124.5t140 45.5q108 0 200 -62l-58 -105q-85 50 -145 50q-56 0 -56 -39
q0 -25 57 -46q4 -1 52 -18q27 -9 46 -17t43 -22t38.5 -29.5t24.5 -39.5t10 -53q0 -86 -56.5 -129.5t-148.5 -43.5zM183 595l-123 157h117l79 -66l79 66h115l-123 -157h-144z" />
    <glyph glyph-name="Ydieresis" unicode="&#x178;" horiz-adv-x="716" 
d="M281 0v276l-269 424h180l167 -281l170 281h175l-269 -421v-279h-154zM392 755v135h146v-135h-146zM178 755v135h146v-135h-146z" />
    <glyph glyph-name="Zcaron" unicode="&#x17d;" horiz-adv-x="708" 
d="M63 0v117l385 448h-373v135h571v-117l-385 -448h385v-135h-583zM285 755l-123 157h117l79 -66l79 66h115l-123 -157h-144z" />
    <glyph glyph-name="zcaron" unicode="&#x17e;" horiz-adv-x="563" 
d="M50 0v107l277 306h-268v123h457v-107l-278 -306h278v-123h-466zM217 595l-123 157h117l79 -66l79 66h115l-123 -157h-144z" />
    <glyph glyph-name="florin" unicode="&#x192;" horiz-adv-x="536" 
d="M100 -5q-36 0 -59 5v123q20 -3 37 -3q32 0 48 14t22 47l28 163h-67v125h89l14 74q15 81 59 121.5t130 40.5q61 0 99 -12v-126q-40 10 -68 10q-63 0 -75 -68l-7 -40h115v-125h-137l-33 -187q-16 -87 -62 -124.5t-133 -37.5z" />
    <glyph glyph-name="circumflex" unicode="&#x2c6;" 
d="M55 595l123 157h144l123 -157h-117l-79 66l-79 -66h-115z" />
    <glyph glyph-name="caron" unicode="&#x2c7;" 
d="M178 595l-123 157h117l79 -66l79 66h115l-123 -157h-144z" />
    <glyph glyph-name="breve" unicode="&#x2d8;" 
d="M250 593q-80 0 -130.5 42t-57.5 117h102q20 -60 86 -60t86 60h102q-7 -75 -57.5 -117t-130.5 -42z" />
    <glyph glyph-name="dotaccent" unicode="&#x2d9;" 
d="M175 595v135h150v-135h-150z" />
    <glyph glyph-name="ring" unicode="&#x2da;" 
d="M250 593q-48 0 -84.5 34.5t-36.5 81.5v2q0 47 36.5 81.5t84.5 34.5t84.5 -34.5t36.5 -81.5v-2q0 -47 -36.5 -81.5t-84.5 -34.5zM250 648q25 0 43.5 18t18.5 43v2q0 25 -18.5 43t-43.5 18t-43.5 -18t-18.5 -43v-2q0 -25 18.5 -43t43.5 -18z" />
    <glyph glyph-name="ogonek" unicode="&#x2db;" 
d="M371 -164q-95 -8 -147.5 20.5t-52.5 88.5q0 31 16 65h104q-6 -21 -6 -39q0 -63 86 -68v-67z" />
    <glyph glyph-name="tilde" unicode="&#x2dc;" 
d="M125 585l-81 25q19 69 47 103.5t77 34.5q34 0 84.5 -19.5t65.5 -19.5q22 0 33.5 11.5t23.5 37.5l81 -25q-19 -69 -47 -103.5t-77 -34.5q-34 0 -84.5 19.5t-65.5 19.5q-22 0 -33.5 -11.5t-23.5 -37.5z" />
    <glyph glyph-name="hungarumlaut" unicode="&#x2dd;" 
d="M231 595l113 177l128 -57l-130 -120h-111zM36 595l111 177l128 -57l-128 -120h-111z" />
    <glyph glyph-name="Omega" unicode="&#x3a9;" horiz-adv-x="784" 
d="M722 0h-289v208q66 14 100 64.5t34 120.5q0 79 -47 133.5t-125 54.5q-80 0 -128 -55.5t-48 -136.5q0 -70 33.5 -118.5t98.5 -62.5v-208h-289v126h174v27q-83 23 -128.5 93.5t-45.5 159.5q0 139 96 222.5t237 83.5q139 0 233 -82.5t94 -221.5q0 -90 -45 -162.5t-129 -92.5
v-27h174v-126z" />
    <glyph glyph-name="pi" unicode="&#x3c0;" 
d="M0 0v700h500v-700h-500zM81 49h339l-170 255zM49 96l171 254l-171 254v-508zM450 96v508l-171 -254zM250 395l170 255h-339z" />
    <glyph glyph-name="afii10023" unicode="&#x401;" horiz-adv-x="670" 
d="M84 0v700h528v-137h-375v-142h330v-137h-330v-147h380v-137h-533zM379 755v135h146v-135h-146zM165 755v135h146v-135h-146z" />
    <glyph glyph-name="afii10051" unicode="&#x402;" horiz-adv-x="868" 
d="M457 6l27 137q26 -4 44 -4q118 0 118 87q0 85 -120 85q-90 0 -151 -56v-255h-153v564h-190v136h593v-136h-250v-161q88 57 190 57q107 0 173.5 -61.5t66.5 -169.5q0 -118 -65.5 -179t-174.5 -61q-65 0 -108 17z" />
    <glyph glyph-name="afii10052" unicode="&#x403;" horiz-adv-x="598" 
d="M238 561v-561h-154v700h489v-139h-335zM217 755l113 177l131 -57l-128 -120h-116z" />
    <glyph glyph-name="afii10053" unicode="&#x404;" horiz-adv-x="733" 
d="M505 417v-128h-287q18 -72 71.5 -117.5t127.5 -45.5q58 0 102 20.5t90 62.5l95 -103q-56 -60 -125 -89t-167 -29q-154 0 -256.5 104.5t-102.5 257.5q0 152 103 257t262 105q154 0 267 -106l-85 -106q-83 74 -183 74q-71 0 -125 -43.5t-73 -113.5h286z" />
    <glyph glyph-name="afii10054" unicode="&#x405;" horiz-adv-x="640" 
d="M333 -10q-172 0 -297 112l91 109q103 -85 209 -85q47 0 74 18t27 50q0 30 -28 48.5t-113 40.5q-60 15 -97 29.5t-70.5 38.5t-49 60.5t-15.5 87.5q0 95 68.5 153t176.5 58q149 0 260 -89l-80 -116q-99 69 -182 69q-43 0 -66.5 -17.5t-23.5 -45.5q0 -34 29 -51t122 -41
q114 -30 168 -77t54 -135q0 -102 -70.5 -159.5t-186.5 -57.5z" />
    <glyph glyph-name="afii10055" unicode="&#x406;" horiz-adv-x="336" 
d="M91 0v700h154v-700h-154z" />
    <glyph glyph-name="afii10056" unicode="&#x407;" horiz-adv-x="336" 
d="M91 0v700h154v-700h-154zM202 755v135h146v-135h-146zM-12 755v135h146v-135h-146z" />
    <glyph glyph-name="afii10057" unicode="&#x408;" horiz-adv-x="564" 
d="M243 -10q-141 0 -229 105l97 108q64 -70 128 -70q94 0 94 116v451h158v-458q0 -121 -66 -187q-65 -65 -182 -65z" />
    <glyph glyph-name="afii10058" unicode="&#x409;" horiz-adv-x="1116" 
d="M523 0v561h-202v-53q0 -200 -24 -313t-72 -158.5t-131 -45.5q-47 0 -81 9l10 127q14 -2 24 -2q34 0 55.5 14.5t40 58.5t26.5 131.5t8 225.5v145h500v-238h149q120 0 188 -61.5t68 -165.5q0 -108 -71.5 -171.5t-194.5 -63.5h-293zM813 330h-136v-191h137q115 0 115 98
q0 93 -116 93z" />
    <glyph glyph-name="afii10059" unicode="&#x40a;" horiz-adv-x="1115" 
d="M820 0h-298v311h-284v-311h-154v700h154v-261h284v261h154v-261h159q117 0 181.5 -58.5t64.5 -158.5q0 -106 -69 -164t-192 -58zM819 311h-143v-172h144q107 0 107 89q0 83 -108 83z" />
    <glyph glyph-name="afii10060" unicode="&#x40b;" horiz-adv-x="868" 
d="M375 255v-255h-153v564h-190v136h593v-136h-250v-161q88 57 190 57q107 0 173.5 -58t66.5 -163v-239h-153v174q0 66 -30 101.5t-89 35.5q-97 0 -158 -56z" />
    <glyph glyph-name="afii10061" unicode="&#x40c;" horiz-adv-x="730" 
d="M84 0v700h154v-306l284 306h186l-285 -297l298 -403h-185l-217 298l-81 -84v-214h-154zM303 755l113 177l131 -57l-128 -120h-116z" />
    <glyph glyph-name="afii10062" unicode="&#x40e;" horiz-adv-x="734" 
d="M380 330l169 370h167l-269 -541q-45 -90 -99.5 -130t-129.5 -40q-79 0 -151 41l60 113q38 -23 83 -23q52 0 88 56l-280 524h172zM378 753q-69 0 -113.5 40t-54.5 112l89 16q21 -67 79 -67t79 67l89 -16q-10 -72 -54.5 -112t-113.5 -40z" />
    <glyph glyph-name="afii10145" unicode="&#x40f;" horiz-adv-x="752" 
d="M84 0v700h153v-560h278v560h153v-700h-218v-146h-149v146h-217z" />
    <glyph glyph-name="afii10017" unicode="&#x410;" horiz-adv-x="790" 
d="M24 0l300 705h142l300 -705h-161l-64 157h-296l-64 -157h-157zM300 293h186l-93 227z" />
    <glyph glyph-name="afii10018" unicode="&#x411;" horiz-adv-x="712" 
d="M238 561v-122h185q117 0 181.5 -58.5t64.5 -158.5q0 -106 -69 -164t-192 -58h-324v700h537v-139h-383zM407 311h-169v-172h170q107 0 107 89q0 83 -108 83z" />
    <glyph glyph-name="afii10019" unicode="&#x412;" horiz-adv-x="722" 
d="M84 0v700h325q121 0 183 -62q48 -48 48 -121q0 -99 -92 -151q65 -25 98 -65.5t33 -108.5q0 -94 -70 -143t-192 -49h-333zM234 417h142q111 0 111 76q0 35 -26 53.5t-75 18.5h-152v-148zM234 135h183q109 0 109 78q0 76 -114 76h-178v-154z" />
    <glyph glyph-name="afii10020" unicode="&#x413;" horiz-adv-x="598" 
d="M238 561v-561h-154v700h489v-139h-335z" />
    <glyph glyph-name="afii10021" unicode="&#x414;" horiz-adv-x="770" 
d="M10 -146v285h66q41 95 59 201t18 278v82h509v-561h84l-20 -285h-129v146h-438l-10 -146h-139zM508 561h-207v-71q0 -198 -63 -351h270v422z" />
    <glyph glyph-name="afii10022" unicode="&#x415;" horiz-adv-x="670" 
d="M84 0v700h528v-137h-375v-142h330v-137h-330v-147h380v-137h-533z" />
    <glyph glyph-name="afii10024" unicode="&#x416;" horiz-adv-x="1119" 
d="M636 0h-153v186l-93 100l-197 -286h-184l277 397l-267 303h183l281 -327v327h153v-327l281 327h183l-267 -303l277 -397h-184l-198 286l-92 -100v-186z" />
    <glyph glyph-name="afii10025" unicode="&#x417;" horiz-adv-x="654" 
d="M333 712q112 0 182.5 -53t70.5 -135q0 -112 -113 -161q131 -42 131 -165q0 -92 -72.5 -151t-193.5 -59q-107 0 -179.5 29t-131.5 88l82 107q91 -89 223 -89q51 0 84.5 22.5t33.5 61.5q0 42 -37.5 62t-101.5 20h-81v128h79q125 0 125 81q0 36 -31 57t-82 21
q-114 0 -189 -77l-81 98q110 115 282 115z" />
    <glyph glyph-name="afii10026" unicode="&#x418;" horiz-adv-x="771" 
d="M687 700v-700h-152v459l-306 -459h-145v700h152v-459l308 459h143z" />
    <glyph glyph-name="afii10027" unicode="&#x419;" horiz-adv-x="771" 
d="M687 700v-700h-152v459l-306 -459h-145v700h152v-459l308 459h143zM388 753q-69 0 -113.5 40t-54.5 112l89 16q21 -67 79 -67t79 67l89 -16q-10 -72 -54.5 -112t-113.5 -40z" />
    <glyph glyph-name="afii10028" unicode="&#x41a;" horiz-adv-x="730" 
d="M84 0v700h154v-306l284 306h186l-285 -297l298 -403h-185l-217 298l-81 -84v-214h-154z" />
    <glyph glyph-name="afii10029" unicode="&#x41b;" horiz-adv-x="761" 
d="M177 700h500v-700h-154v561h-202v-53q0 -205 -24.5 -318t-71.5 -156t-131 -43q-47 0 -81 9l10 127q14 -2 24 -2q34 0 55.5 14.5t40 58.5t26.5 131.5t8 225.5v145z" />
    <glyph glyph-name="afii10030" unicode="&#x41c;" horiz-adv-x="868" 
d="M84 0v700h166l184 -296l184 296h166v-700h-153v457l-197 -299h-4l-195 296v-454h-151z" />
    <glyph glyph-name="afii10031" unicode="&#x41d;" horiz-adv-x="760" 
d="M84 0v700h154v-277h284v277h154v-700h-154v281h-284v-281h-154z" />
    <glyph glyph-name="afii10032" unicode="&#x41e;" horiz-adv-x="850" 
d="M424 -12q-160 0 -265.5 105t-105.5 257q0 151 106.5 256.5t266.5 105.5t265.5 -105t105.5 -257q0 -151 -106.5 -256.5t-266.5 -105.5zM426 130q92 0 151 63.5t59 156.5q0 92 -60 156t-152 64t-151 -63.5t-59 -156.5q0 -92 60 -156t152 -64z" />
    <glyph glyph-name="afii10033" unicode="&#x41f;" horiz-adv-x="752" 
d="M84 0v700h584v-700h-154v561h-276v-561h-154z" />
    <glyph glyph-name="afii10034" unicode="&#x420;" horiz-adv-x="668" 
d="M84 0v700h286q124 0 196 -67t72 -177q0 -117 -80 -181.5t-203 -64.5h-117v-210h-154zM238 347h122q57 0 89.5 30t32.5 78q0 51 -33 78.5t-92 27.5h-119v-214z" />
    <glyph glyph-name="afii10035" unicode="&#x421;" horiz-adv-x="738" 
d="M412 -12q-154 0 -256.5 104.5t-102.5 257.5q0 152 103 257t262 105q91 0 153 -29.5t118 -84.5l-92 -106q-45 41 -84.5 59.5t-95.5 18.5q-88 0 -145.5 -63.5t-57.5 -156.5q0 -92 57.5 -156t145.5 -64q56 0 97 20t87 62l98 -105q-57 -61 -123.5 -90t-163.5 -29z" />
    <glyph glyph-name="afii10036" unicode="&#x422;" horiz-adv-x="648" 
d="M247 0v558h-213v142h580v-142h-213v-558h-154z" />
    <glyph glyph-name="afii10037" unicode="&#x423;" horiz-adv-x="734" 
d="M380 330l169 370h167l-269 -541q-45 -90 -99.5 -130t-129.5 -40q-79 0 -151 41l60 113q38 -23 83 -23q52 0 88 56l-280 524h172z" />
    <glyph glyph-name="afii10038" unicode="&#x424;" horiz-adv-x="932" 
d="M543 526v-341q85 0 136.5 46.5t51.5 124.5q0 77 -51.5 123.5t-136.5 46.5zM543 -28h-154v76q-159 0 -253 87.5t-94 223.5q0 134 94 219t253 85v64h154v-64q158 0 252.5 -85.5t94.5 -219.5q0 -135 -94 -222.5t-253 -87.5v-76zM389 185v341q-85 0 -137 -46.5t-52 -123.5
q0 -78 52 -124.5t137 -46.5z" />
    <glyph glyph-name="afii10039" unicode="&#x425;" horiz-adv-x="732" 
d="M31 0l244 356l-234 344h180l147 -227l148 227h175l-234 -342l244 -358h-180l-157 240l-158 -240h-175z" />
    <glyph glyph-name="afii10040" unicode="&#x426;" horiz-adv-x="775" 
d="M603 -146v146h-519v700h154v-561h276v561h154v-561h83l-20 -285h-128z" />
    <glyph glyph-name="afii10041" unicode="&#x427;" horiz-adv-x="728" 
d="M490 0v261q-106 -52 -185 -52q-109 0 -172 59t-63 176v256h154v-211q0 -136 113 -136q95 0 153 45v302h154v-700h-154z" />
    <glyph glyph-name="afii10042" unicode="&#x428;" horiz-adv-x="1129" 
d="M1045 700v-700h-961v700h154v-561h249v561h154v-561h250v561h154z" />
    <glyph glyph-name="afii10043" unicode="&#x429;" horiz-adv-x="1152" 
d="M980 -146v146h-896v700h154v-561h249v561h154v-561h250v561h154v-561h83l-20 -285h-128z" />
    <glyph glyph-name="afii10044" unicode="&#x42a;" horiz-adv-x="790" 
d="M487 330h-136v-191h137q115 0 115 98q0 93 -116 93zM351 700v-238h149q120 0 188 -61.5t68 -165.5q0 -108 -71.5 -171.5t-194.5 -63.5h-293v561h-167v139h321z" />
    <glyph glyph-name="afii10045" unicode="&#x42b;" horiz-adv-x="959" 
d="M84 0v700h154v-238h149q120 0 188 -61.5t68 -165.5q0 -108 -71.5 -171.5t-194.5 -63.5h-293zM374 330h-136v-191h137q115 0 115 98q0 93 -116 93zM721 0v700h154v-700h-154z" />
    <glyph glyph-name="afii10046" unicode="&#x42c;" horiz-adv-x="677" 
d="M84 0v700h154v-238h149q120 0 188 -61.5t68 -165.5q0 -108 -71.5 -171.5t-194.5 -63.5h-293zM374 330h-136v-191h137q115 0 115 98q0 93 -116 93z" />
    <glyph glyph-name="afii10047" unicode="&#x42d;" horiz-adv-x="733" 
d="M228 289v128h286q-19 70 -73 113.5t-125 43.5q-100 0 -183 -74l-85 106q113 106 267 106q159 0 262 -105t103 -257q0 -153 -102.5 -257.5t-256.5 -104.5q-98 0 -167 29t-125 89l95 103q46 -42 90 -62.5t102 -20.5q74 0 127.5 45.5t71.5 117.5h-287z" />
    <glyph glyph-name="afii10048" unicode="&#x42e;" horiz-adv-x="1065" 
d="M670 -12q-132 0 -223.5 82.5t-112.5 212.5h-96v-283h-154v700h154v-279h97q22 127 114.5 209t222.5 82q148 0 244 -104t96 -258q0 -153 -96.5 -257.5t-245.5 -104.5zM672 128q80 0 130.5 63t50.5 159q0 94 -51.5 157.5t-131.5 63.5t-130.5 -62.5t-50.5 -158.5
q0 -94 51 -158t132 -64z" />
    <glyph glyph-name="afii10049" unicode="&#x42f;" horiz-adv-x="723" 
d="M638 700v-700h-154v224h-121l-150 -224h-180l171 250q-150 56 -150 219q0 108 70.5 169.5t193.5 61.5h320zM328 360h156v201h-153q-57 0 -89 -26t-32 -76q0 -45 31.5 -72t86.5 -27z" />
    <glyph glyph-name="afii10065" unicode="&#x430;" horiz-adv-x="592" 
d="M220 -10q-79 0 -131.5 44t-52.5 122q0 85 58.5 128t157.5 43q67 0 131 -22v9q0 98 -115 98q-69 0 -148 -29l-38 116q98 43 208 43q121 0 181 -60q58 -58 58 -171v-311h-147v58q-61 -68 -162 -68zM266 95q53 0 86 26.5t33 67.5v27q-43 20 -97 20q-50 0 -77.5 -19.5
t-27.5 -56.5q0 -30 23 -47.5t60 -17.5z" />
    <glyph glyph-name="afii10066" unicode="&#x431;" horiz-adv-x="654" 
d="M335 119q57 0 93 39.5t36 98.5q0 58 -37.5 99t-93.5 41q-57 0 -93 -40.5t-36 -99.5q0 -58 37.5 -98t93.5 -40zM333 -12q-136 0 -208 82.5t-72 237.5q0 55 4 97.5t17.5 90.5t37 82t66 61t100.5 38l287 53l24 -120l-294 -58q-122 -25 -130 -126q19 33 70 61.5t125 28.5
q104 0 179 -74t75 -183q0 -113 -80 -192t-201 -79z" />
    <glyph glyph-name="afii10067" unicode="&#x432;" horiz-adv-x="600" 
d="M68 536h294q82 0 130.5 -36t48.5 -98q0 -84 -85 -121q105 -32 105 -135q0 -68 -53.5 -107t-146.5 -39h-293v536zM218 321h107q31 0 47.5 15t16.5 39q0 21 -15.5 35t-46.5 14h-109v-103zM218 119h120q69 0 69 54q0 52 -73 52h-116v-106z" />
    <glyph glyph-name="afii10068" unicode="&#x433;" horiz-adv-x="474" 
d="M459 406h-239v-406h-152v536h391v-130z" />
    <glyph glyph-name="afii10069" unicode="&#x434;" horiz-adv-x="645" 
d="M222 130h183v276h-143v-12q-2 -173 -40 -264zM484 0h-336l-11 -126h-128v256h58q52 111 52 360v46h438v-406h73l-18 -256h-128v126z" />
    <glyph glyph-name="afii10070" unicode="&#x435;" horiz-adv-x="613" 
d="M322 -12q-122 0 -201 77.5t-79 201.5q0 117 75 198t190 81q127 0 194 -84t67 -207q0 -12 -2 -40h-373q11 -51 45 -78t86 -27q71 0 130 55l87 -77q-81 -100 -219 -100zM191 310h229q-7 52 -36.5 83t-76.5 31q-46 0 -76.5 -30.5t-39.5 -83.5z" />
    <glyph glyph-name="afii10072" unicode="&#x436;" horiz-adv-x="891" 
d="M522 0h-153v139l-64 75l-135 -214h-170l203 314l-197 222h175l188 -228v228h153v-228l188 228h176l-197 -222l202 -314h-169l-136 214l-64 -75v-139z" />
    <glyph glyph-name="afii10073" unicode="&#x437;" horiz-adv-x="523" 
d="M100 366l-65 93q91 84 226 84q87 0 145.5 -41.5t58.5 -103.5q0 -84 -82 -121q95 -34 95 -125q0 -70 -61 -117t-155 -47q-148 0 -244 85l70 97q71 -61 161 -61q34 0 56.5 16.5t22.5 40.5t-23.5 39.5t-65.5 15.5h-63v95h62q35 0 56 16t21 39q0 21 -20 36t-50 15
q-86 0 -145 -56z" />
    <glyph glyph-name="afii10074" unicode="&#x438;" horiz-adv-x="635" 
d="M567 536v-536h-147v312l-209 -312h-143v536h147v-313l209 313h143z" />
    <glyph glyph-name="afii10075" unicode="&#x439;" horiz-adv-x="635" 
d="M567 536v-536h-147v312l-209 -312h-143v536h147v-313l209 313h143zM322 587q-69 0 -113.5 40t-54.5 112l89 16q21 -67 79 -67t79 67l89 -16q-10 -72 -54.5 -112t-113.5 -40z" />
    <glyph glyph-name="afii10076" unicode="&#x43a;" horiz-adv-x="611" 
d="M68 0v536h152v-220l192 220h175l-197 -220l222 -316h-180l-143 204l-69 -75v-129h-152z" />
    <glyph glyph-name="afii10077" unicode="&#x43b;" horiz-adv-x="631" 
d="M132 536h431v-536h-152v406h-136q0 -106 -8 -179t-22 -119t-39 -71t-54 -34t-72 -9q-41 0 -77 9l10 123q18 -3 32 -3q24 0 38 11.5t26.5 52t17.5 125t5 224.5z" />
    <glyph glyph-name="afii10078" unicode="&#x43c;" horiz-adv-x="736" 
d="M68 0v536h154l145 -225l147 225h154v-536h-154v322l-149 -220l-147 217v-319h-150z" />
    <glyph glyph-name="afii10079" unicode="&#x43d;" horiz-adv-x="627" 
d="M559 536v-536h-152v205h-187v-205h-152v536h152v-206h187v206h152z" />
    <glyph glyph-name="afii10080" unicode="&#x43e;" horiz-adv-x="664" 
d="M331 -12q-124 0 -206.5 80.5t-82.5 198.5q0 117 83.5 198t207.5 81t206.5 -80.5t82.5 -198.5q0 -117 -83.5 -198t-207.5 -81zM333 119q63 0 101 42.5t38 105.5q0 61 -39.5 104.5t-101.5 43.5q-63 0 -101 -42.5t-38 -105.5q0 -61 39.5 -104.5t101.5 -43.5z" />
    <glyph glyph-name="afii10081" unicode="&#x43f;" horiz-adv-x="623" 
d="M555 536v-536h-152v406h-183v-406h-152v536h487z" />
    <glyph glyph-name="afii10082" unicode="&#x440;" horiz-adv-x="675" 
d="M68 -160v696h152v-77q64 87 167 87q100 0 172 -75t72 -204q0 -128 -71.5 -202.5t-172.5 -74.5q-100 0 -167 80v-230h-152zM348 119q55 0 93 41.5t38 108.5q0 65 -38 106.5t-93 41.5t-92.5 -41.5t-37.5 -108.5q0 -65 37.5 -106.5t92.5 -41.5z" />
    <glyph glyph-name="afii10083" unicode="&#x441;" horiz-adv-x="571" 
d="M321 -12q-120 0 -199.5 81t-79.5 198q0 116 80 197.5t201 81.5q129 0 213 -94l-89 -90q-56 53 -125 53q-56 0 -93 -43t-37 -105q0 -63 37.5 -105.5t98.5 -42.5q63 0 123 57l89 -90q-44 -48 -94 -73t-125 -25z" />
    <glyph glyph-name="afii10084" unicode="&#x442;" horiz-adv-x="502" 
d="M487 536v-130h-159v-406h-154v406h-159v130h472z" />
    <glyph glyph-name="afii10085" unicode="&#x443;" horiz-adv-x="600" 
d="M196 -163q-72 0 -135 37l51 110q35 -21 65 -21q36 0 53 35l-210 538h161l122 -365l117 365h158l-206 -549q-31 -83 -70 -116.5t-106 -33.5z" />
    <glyph glyph-name="afii10086" unicode="&#x444;" horiz-adv-x="903" 
d="M593 415q-30 0 -65 -26v-245q32 -24 65 -24q55 0 84.5 39t29.5 108q0 67 -30 107.5t-84 40.5zM528 -160h-153v196q-17 -18 -48 -30.5t-66 -12.5q-97 0 -157 73t-60 201t60 201.5t158 73.5q34 0 65 -15t48 -35v208h153v-208q17 20 48 35t65 15q98 0 158 -73.5t60 -201.5
t-60 -201t-157 -73q-35 0 -66 12.5t-48 30.5v-196zM310 415q-54 0 -84 -40.5t-30 -107.5q0 -69 29.5 -108t84.5 -39q33 0 65 24v245q-35 26 -65 26z" />
    <glyph glyph-name="afii10087" unicode="&#x445;" horiz-adv-x="584" 
d="M23 0l188 272l-181 264h163l100 -156l101 156h159l-181 -261l189 -275h-163l-108 167l-108 -167h-159z" />
    <glyph glyph-name="afii10088" unicode="&#x446;" horiz-adv-x="643" 
d="M482 -126v126h-414v536h152v-406h183v406h152v-406h73l-18 -256h-128z" />
    <glyph glyph-name="afii10089" unicode="&#x447;" horiz-adv-x="606" 
d="M207 536v-168q0 -88 74 -88q52 0 104 26v230h153v-536h-153v187q-72 -35 -145 -35q-83 0 -135 45.5t-52 127.5v211h154z" />
    <glyph glyph-name="afii10090" unicode="&#x448;" horiz-adv-x="934" 
d="M866 536v-536h-798v536h152v-406h171v406h152v-406h170v406h153z" />
    <glyph glyph-name="afii10091" unicode="&#x449;" horiz-adv-x="954" 
d="M793 0h-725v536h152v-406h171v406h152v-406h170v406h153v-406h73l-18 -256h-128v126z" />
    <glyph glyph-name="afii10092" unicode="&#x44a;" horiz-adv-x="649" 
d="M401 244h-95v-124h96q75 0 75 64q0 28 -19.5 44t-56.5 16zM306 536v-177h110q97 0 155.5 -45t58.5 -132q0 -85 -54.5 -133.5t-151.5 -48.5h-270v408h-139v128h291z" />
    <glyph glyph-name="afii10093" unicode="&#x44b;" horiz-adv-x="835" 
d="M68 0v536h152v-177h110q97 0 155.5 -45t58.5 -132q0 -85 -54.5 -133.5t-151.5 -48.5h-270zM315 244h-95v-124h96q75 0 75 64q0 28 -19.5 44t-56.5 16zM615 0v536h152v-536h-152z" />
    <glyph glyph-name="afii10094" unicode="&#x44c;" horiz-adv-x="563" 
d="M68 0v536h152v-177h110q97 0 155.5 -45t58.5 -132q0 -85 -54.5 -133.5t-151.5 -48.5h-270zM315 244h-95v-124h96q75 0 75 64q0 28 -19.5 44t-56.5 16z" />
    <glyph glyph-name="afii10095" unicode="&#x44d;" horiz-adv-x="575" 
d="M193 217v102h186q-14 45 -47.5 72.5t-78.5 27.5q-76 0 -130 -51l-79 93q85 85 208 85q121 0 201 -81.5t80 -197.5q0 -117 -79.5 -198t-199.5 -81q-134 0 -223 98l86 87q61 -58 130 -58q49 0 84 28t49 74h-187z" />
    <glyph glyph-name="afii10096" unicode="&#x44e;" horiz-adv-x="869" 
d="M556 -12q-102 0 -173.5 60.5t-89.5 156.5h-73v-205h-152v536h152v-206h73q20 95 91.5 155.5t173.5 60.5q119 0 194 -80t75 -199q0 -118 -76 -198.5t-195 -80.5zM558 119q59 0 89 41.5t30 106.5q0 63 -32 105.5t-89 42.5q-59 0 -89 -41.5t-30 -106.5q0 -63 32 -105.5
t89 -42.5z" />
    <glyph glyph-name="afii10097" unicode="&#x44f;" horiz-adv-x="611" 
d="M543 536v-536h-152v172h-82l-113 -172h-176l137 197q-112 43 -112 160q0 82 57 130.5t160 48.5h281zM288 282h103v135h-104q-42 0 -65 -17.5t-23 -50.5q0 -32 23.5 -49.5t65.5 -17.5z" />
    <glyph glyph-name="afii10071" unicode="&#x451;" horiz-adv-x="613" 
d="M322 -12q-122 0 -201 77.5t-79 201.5q0 117 75 198t190 81q127 0 194 -84t67 -207q0 -12 -2 -40h-373q11 -51 45 -78t86 -27q71 0 130 55l87 -77q-81 -100 -219 -100zM191 310h229q-7 52 -36.5 83t-76.5 31q-46 0 -76.5 -30.5t-39.5 -83.5zM340 595v135h146v-135h-146z
M126 595v135h146v-135h-146z" />
    <glyph glyph-name="afii10099" unicode="&#x452;" horiz-adv-x="623" 
d="M407 238v21q0 53 -24 81t-68 28t-69.5 -28t-25.5 -81v-259h-152v551h-66v106h66v73h152v-73h156v-106h-156v-131q67 86 157 86q86 0 134 -53t48 -146v-114q0 -93 -53 -147t-138 -54q-23 0 -42.5 2.5t-29 5t-21 6.5l-14.5 5l25 116q7 -2 22 -2q45 0 72 30t27 83z" />
    <glyph glyph-name="afii10100" unicode="&#x453;" horiz-adv-x="474" 
d="M459 406h-239v-406h-152v536h391v-130zM165 595l113 177l131 -57l-128 -120h-116z" />
    <glyph glyph-name="afii10101" unicode="&#x454;" horiz-adv-x="575" 
d="M382 319v-102h-187q14 -46 49 -74t84 -28q69 0 130 58l86 -87q-89 -98 -223 -98q-120 0 -199.5 81t-79.5 198q0 116 80 197.5t201 81.5q123 0 208 -85l-79 -93q-54 51 -130 51q-45 0 -78.5 -27.5t-47.5 -72.5h186z" />
    <glyph glyph-name="afii10102" unicode="&#x455;" horiz-adv-x="502" 
d="M256 -10q-127 0 -230 81l65 100q88 -64 169 -64q64 0 64 42q0 5 -1.5 10t-5.5 9t-8.5 7.5t-12 7l-13 6t-15.5 6t-17 5.5l-19 5.5l-19 5.5q-34 10 -57.5 20.5t-49.5 29t-39.5 47t-13.5 66.5q0 79 56 124.5t140 45.5q108 0 200 -62l-58 -105q-85 50 -145 50q-56 0 -56 -39
q0 -25 57 -46q4 -1 52 -18q27 -9 46 -17t43 -22t38.5 -29.5t24.5 -39.5t10 -53q0 -86 -56.5 -129.5t-148.5 -43.5z" />
    <glyph glyph-name="afii10103" unicode="&#x456;" horiz-adv-x="302" 
d="M71 595v135h160v-135h-160zM75 0v536h152v-536h-152z" />
    <glyph glyph-name="afii10104" unicode="&#x457;" horiz-adv-x="302" 
d="M185 595v135h146v-135h-146zM-29 595v135h146v-135h-146zM75 0v536h152v-536h-152z" />
    <glyph glyph-name="afii10105" unicode="&#x458;" horiz-adv-x="302" 
d="M71 595v135h160v-135h-160zM55 -163q-35 0 -66 6v119q18 -3 32 -3q54 0 54 62v515h152v-527q0 -172 -172 -172z" />
    <glyph glyph-name="afii10106" unicode="&#x459;" horiz-adv-x="906" 
d="M411 0v406h-136q0 -106 -8 -179t-22 -119t-39 -71t-54 -34t-72 -9q-46 0 -77 9l10 123q18 -3 32 -3q24 0 38 11.5t26.5 52t17.5 125t5 224.5h431v-177h110q97 0 155.5 -45t58.5 -132q0 -85 -54.5 -133.5t-151.5 -48.5h-270zM658 244h-95v-124h96q75 0 75 64
q0 28 -19.5 44t-56.5 16z" />
    <glyph glyph-name="afii10107" unicode="&#x45a;" horiz-adv-x="902" 
d="M407 0v236h-187v-236h-152v536h152v-185h187v185h152v-185h110q97 0 155.5 -43.5t58.5 -130.5q0 -84 -54.5 -130.5t-151.5 -46.5h-270zM654 236h-95v-116h96q75 0 75 59q0 57 -76 57z" />
    <glyph glyph-name="afii10108" unicode="&#x45b;" horiz-adv-x="623" 
d="M2 657h66v73h152v-73h156v-106h-156v-131q67 86 157 86q86 0 134 -53t48 -146v-307h-152v259q0 53 -24 81t-68 28t-69.5 -28t-25.5 -81v-259h-152v551h-66v106z" />
    <glyph glyph-name="afii10109" unicode="&#x45c;" horiz-adv-x="611" 
d="M68 0v536h152v-220l192 220h175l-197 -220l222 -316h-180l-143 204l-69 -75v-129h-152zM233 595l113 177l131 -57l-128 -120h-116z" />
    <glyph glyph-name="afii10110" unicode="&#x45e;" horiz-adv-x="600" 
d="M196 -163q-72 0 -135 37l51 110q35 -21 65 -21q36 0 53 35l-210 538h161l122 -365l117 365h158l-206 -549q-31 -83 -70 -116.5t-106 -33.5zM302 587q-69 0 -113.5 40t-54.5 112l89 16q21 -67 79 -67t79 67l89 -16q-10 -72 -54.5 -112t-113.5 -40z" />
    <glyph glyph-name="afii10193" unicode="&#x45f;" horiz-adv-x="623" 
d="M242 -126v126h-174v536h152v-406h183v406h152v-536h-170v-126h-143z" />
    <glyph glyph-name="afii10050" unicode="&#x490;" horiz-adv-x="598" 
d="M573 561h-335v-561h-154v700h341v146h128z" />
    <glyph glyph-name="afii10098" unicode="&#x491;" horiz-adv-x="474" 
d="M459 406h-239v-406h-152v536h245v126h128z" />
    <glyph glyph-name="endash" unicode="&#x2013;" horiz-adv-x="528" 
d="M50 239v142h428v-142h-428z" />
    <glyph glyph-name="emdash" unicode="&#x2014;" horiz-adv-x="898" 
d="M50 239v142h798v-142h-798z" />
    <glyph glyph-name="quoteleft" unicode="&#x2018;" horiz-adv-x="286" 
d="M57 383v135q0 96 46.5 140.5t138.5 46.5l13 -63q-106 -11 -98 -99h62v-160h-162z" />
    <glyph glyph-name="quoteright" unicode="&#x2019;" horiz-adv-x="286" 
d="M44 378l-13 63q106 11 98 99h-62v160h162v-135q0 -96 -46.5 -140.5t-138.5 -46.5z" />
    <glyph glyph-name="quotesinglbase" unicode="&#x201a;" horiz-adv-x="286" 
d="M39 -162l-13 63q106 11 98 99h-62v160h162v-135q0 -96 -46.5 -140.5t-138.5 -46.5z" />
    <glyph glyph-name="quotedblleft" unicode="&#x201c;" horiz-adv-x="540" 
d="M311 383v135q0 96 46.5 140.5t138.5 46.5l13 -63q-106 -11 -98 -99h62v-160h-162zM57 383v135q0 96 46.5 140.5t138.5 46.5l13 -63q-106 -11 -98 -99h62v-160h-162z" />
    <glyph glyph-name="quotedblright" unicode="&#x201d;" horiz-adv-x="540" 
d="M298 378l-13 63q106 11 98 99h-62v160h162v-135q0 -96 -46.5 -140.5t-138.5 -46.5zM44 378l-13 63q106 11 98 99h-62v160h162v-135q0 -96 -46.5 -140.5t-138.5 -46.5z" />
    <glyph glyph-name="quotedblbase" unicode="&#x201e;" horiz-adv-x="540" 
d="M293 -162l-13 63q106 11 98 99h-62v160h162v-135q0 -96 -46.5 -140.5t-138.5 -46.5zM39 -162l-13 63q106 11 98 99h-62v160h162v-135q0 -96 -46.5 -140.5t-138.5 -46.5z" />
    <glyph glyph-name="dagger" unicode="&#x2020;" horiz-adv-x="410" 
d="M163 238l10 270l-120 -10v83l119 -10l-13 129h92l-13 -129l119 10v-83l-120 10l10 -270h-84z" />
    <glyph glyph-name="daggerdbl" unicode="&#x2021;" horiz-adv-x="430" 
d="M169 0l13 129l-119 -10v83l119 -10l-9 158l9 158l-119 -10v83l119 -10l-13 129h92l-13 -129l119 10v-83l-119 10l9 -158l-9 -158l119 10v-83l-119 10l13 -129h-92z" />
    <glyph glyph-name="bullet" unicode="&#x2022;" 
d="M250 203q-62 0 -105.5 43.5t-43.5 104.5v2q0 61 43.5 104.5t105.5 43.5t105.5 -43.5t43.5 -104.5v-2q0 -61 -43.5 -104.5t-105.5 -43.5z" />
    <glyph glyph-name="ellipsis" unicode="&#x2026;" horiz-adv-x="840" 
d="M620 0v156h158v-156h-158zM341 0v156h158v-156h-158zM62 0v156h158v-156h-158z" />
    <glyph glyph-name="perthousand" unicode="&#x2030;" horiz-adv-x="1240" 
d="M214 350q-74 0 -121.5 51t-47.5 126v2q0 76 48 127.5t123 51.5q74 0 121.5 -51t47.5 -126v-2q0 -75 -48 -127t-123 -52zM115 0l511 700h119l-511 -700h-119zM1024 -8q-74 0 -121.5 51t-47.5 126v2q0 76 48 127.5t123 51.5q74 0 121.5 -51t47.5 -126v-2q0 -75 -48 -127
t-123 -52zM644 -8q-74 0 -121.5 51t-47.5 126v2q0 76 48 127.5t123 51.5q74 0 121.5 -51t47.5 -126v-2q0 -75 -48 -127t-123 -52zM216 441q30 0 47 25t17 61v2q0 36 -18.5 62t-47.5 26q-30 0 -47 -25t-17 -61v-2q0 -36 18.5 -62t47.5 -26zM1026 83q30 0 47 25t17 61v2
q0 36 -18.5 62t-47.5 26q-30 0 -47 -25t-17 -61v-2q0 -36 18.5 -62t47.5 -26zM646 83q30 0 47 25t17 61v2q0 36 -18.5 62t-47.5 26q-30 0 -47 -25t-17 -61v-2q0 -36 18.5 -62t47.5 -26z" />
    <glyph glyph-name="guilsinglleft" unicode="&#x2039;" horiz-adv-x="373" 
d="M209 40l-168 224v8l168 224l116 -56l-130 -171l130 -171z" />
    <glyph glyph-name="guilsinglright" unicode="&#x203a;" horiz-adv-x="373" 
d="M164 40l-116 56l130 171l-130 171l116 58l168 -224v-8z" />
    <glyph glyph-name="fraction" unicode="&#x2044;" horiz-adv-x="480" 
d="M-71 -98l466 856h134l-466 -856h-134z" />
    <glyph glyph-name="Euro" unicode="&#x20ac;" horiz-adv-x="720" 
d="M437 -12q-112 0 -189 61.5t-107 167.5h-92v101h75q-1 10 -1 32q0 24 1 36h-75v101h94q32 102 108 163.5t183 61.5q87 0 144.5 -33t101.5 -95l-116 -88q-30 40 -60.5 59.5t-72.5 19.5q-87 0 -128 -88h185v-101h-208q-1 -11 -1 -36q0 -22 1 -32h208v-101h-186
q41 -92 135 -92q41 0 70 19t65 63l110 -81q-48 -67 -106 -102.5t-139 -35.5z" />
    <glyph glyph-name="afii61352" unicode="&#x2116;" horiz-adv-x="1061" 
d="M62 0v700h144l273 -424v424h159v-700h-133l-284 436v-436h-159zM721 124v91h268v-91h-268zM854 265q-66 0 -109.5 44t-43.5 109t44.5 109.5t110.5 44.5t109.5 -44t43.5 -109t-44.5 -109.5t-110.5 -44.5zM856 345q28 0 45.5 21t17.5 52t-18 52.5t-47 21.5q-28 0 -45.5 -21
t-17.5 -52t18 -52.5t47 -21.5z" />
    <glyph glyph-name="published" unicode="&#x2117;" horiz-adv-x="830" 
d="M414 -12q-151 0 -256 105.5t-105 254.5v2q0 149 106 255.5t257 106.5t256 -105.5t105 -254.5v-2q0 -149 -106 -255.5t-257 -106.5zM414 28q136 0 228.5 94t92.5 228v2q0 134 -91.5 227t-227.5 93t-228.5 -94t-92.5 -228v-2q0 -134 91.5 -227t227.5 -93zM282 164v385h158
q68 0 108 -36.5t40 -96.5v-2q0 -64 -44 -99t-112 -35h-64v-116h-86zM368 355h66q31 0 49 16.5t18 41.5v2q0 27 -18.5 42.5t-50.5 15.5h-64v-118z" />
    <glyph glyph-name="trademark" unicode="&#x2122;" horiz-adv-x="690" 
d="M345 392v308h74l81 -130l81 130h72v-308h-66v208l-85 -135h-6l-85 135v-208h-66zM118 392v246h-92v62h254v-62h-92v-246h-70z" />
    <glyph glyph-name="partialdiff" unicode="&#x2202;" 
d="M0 0v700h500v-700h-500zM81 49h339l-170 255zM49 96l171 254l-171 254v-508zM450 96v508l-171 -254zM250 395l170 255h-339z" />
    <glyph glyph-name="Delta" unicode="&#x2206;" horiz-adv-x="570" 
d="M740 0h-723l290 700h143zM380 498l-140 -362h281z" />
    <glyph glyph-name="product" unicode="&#x220f;" 
d="M0 0v700h500v-700h-500zM81 49h339l-170 255zM49 96l171 254l-171 254v-508zM450 96v508l-171 -254zM250 395l170 255h-339z" />
    <glyph glyph-name="summation" unicode="&#x2211;" 
d="M0 0v700h500v-700h-500zM81 49h339l-170 255zM49 96l171 254l-171 254v-508zM450 96v508l-171 -254zM250 395l170 255h-339z" />
    <glyph glyph-name="minus" unicode="&#x2212;" horiz-adv-x="640" 
d="M557 282h-474v140h474v-140z" />
    <glyph glyph-name="radical" unicode="&#x221a;" horiz-adv-x="605" 
d="M82 231h-107v98h168l113 -218l288 687h112l-389 -926z" />
    <glyph glyph-name="infinity" unicode="&#x221e;" horiz-adv-x="864" 
d="M240 146q-90 0 -142.5 58.5t-52.5 149.5q0 89 51.5 146t139.5 57q63 0 106.5 -31t89.5 -92q46 61 89.5 92t106.5 31q88 0 139.5 -57t51.5 -146q0 -90 -51.5 -149t-140.5 -59q-58 0 -104 31t-91 86q-47 -57 -90 -87t-102 -30zM239 271q58 0 121 81q-63 81 -123 81
q-34 0 -54 -23.5t-20 -57.5q0 -35 20.5 -58t55.5 -23zM627 271q35 0 54.5 23t19.5 58t-21 58t-56 23q-58 0 -120 -81q64 -81 123 -81z" />
    <glyph glyph-name="integral" unicode="&#x222b;" 
d="M0 0v700h500v-700h-500zM81 49h339l-170 255zM49 96l171 254l-171 254v-508zM450 96v508l-171 -254zM250 395l170 255h-339z" />
    <glyph glyph-name="approxequal" unicode="&#x2248;" horiz-adv-x="640" 
d="M150 385l-76 21q35 154 146 154q30 0 107 -19.5t91 -19.5q56 0 75 47l77 -21q-35 -154 -146 -154q-30 0 -107.5 19.5t-91.5 19.5q-55 0 -75 -47zM150 131l-76 21q35 154 146 154q30 0 107 -19.5t91 -19.5q56 0 75 47l77 -21q-35 -154 -146 -154q-30 0 -107.5 19.5
t-91.5 19.5q-55 0 -75 -47z" />
    <glyph glyph-name="notequal" unicode="&#x2260;" horiz-adv-x="640" 
d="M79 413v136h320l68 103h95l-68 -103h66v-136h-155l-80 -122h235v-136h-323l-71 -107h-95l70 107h-62v136h151l80 122h-231z" />
    <glyph glyph-name="lessequal" unicode="&#x2264;" horiz-adv-x="640" 
d="M563 182l-483 166v141l483 166v-145l-339 -91l339 -92v-145zM79 17v129h485v-129h-485z" />
    <glyph glyph-name="greaterequal" unicode="&#x2265;" horiz-adv-x="640" 
d="M563 348l-483 -166v145l339 92l-339 91v145l483 -166v-141zM564 146v-129h-485v129h485z" />
    <glyph glyph-name="lozenge" unicode="&#x25ca;" horiz-adv-x="640" 
d="M573 356l-190 -391h-128l-188 391l189 391h127zM429 356l-109 249l-109 -249l109 -250z" />
    <glyph glyph-name="cyrBreve" unicode="&#xf6d1;" 
d="M248 593q-69 0 -113.5 40t-54.5 112l89 16q21 -67 79 -67t79 67l89 -16q-10 -72 -54.5 -112t-113.5 -40z" />
    <glyph glyph-name="cyrbreve" unicode="&#xf6d4;" 
d="M248 587q-69 0 -113.5 40t-54.5 112l89 16q21 -67 79 -67t79 67l89 -16q-10 -72 -54.5 -112t-113.5 -40z" />
    <glyph glyph-name="ff" unicode="&#xfb00;" horiz-adv-x="764" 
d="M476 0v406h-63v125h63v34q0 87 43 130q42 42 123 42q61 0 108 -15v-126q-36 13 -69 13q-55 0 -55 -58v-21h123v-124h-121v-406h-152zM94 0v406h-63v125h63v34q0 87 43 130q42 42 123 42q61 0 108 -15v-126q-36 13 -69 13q-55 0 -55 -58v-21h123v-124h-121v-406h-152z" />
    <glyph glyph-name="uni00A0" horiz-adv-x="300" 
 />
    <glyph glyph-name="apple" 
d="M0 0v700h500v-700h-500zM81 49h339l-170 255zM49 96l171 254l-171 254v-508zM450 96v508l-171 -254zM250 395l170 255h-339z" />
    </font>
</defs>
</svg>
